<svg width="53" height="52" viewBox="0 0 53 52" fill="none" xmlns="http://www.w3.org/2000/svg">
<rect x="0.5" width="52" height="52" rx="6" fill="url(#paint0_linear_5446_270)"/>
<g clip-path="url(#clip0_5446_270)">
<path d="M20.7801 27.22L24.3801 24.82C24.3977 24.8051 24.4121 24.7868 24.4224 24.7662C24.4327 24.7456 24.4387 24.723 24.4401 24.7C24.4386 24.6784 24.4325 24.6574 24.4221 24.6384C24.4117 24.6195 24.3974 24.6029 24.3801 24.59L21.1201 22.42C20.933 22.3071 20.7186 22.2474 20.5001 22.2474C20.2815 22.2474 20.0672 22.3071 19.8801 22.42L16.6201 24.59C16.6027 24.6029 16.5884 24.6195 16.578 24.6384C16.5677 24.6574 16.5615 24.6784 16.5601 24.7C16.5614 24.723 16.5674 24.7456 16.5777 24.7662C16.588 24.7868 16.6024 24.8051 16.6201 24.82L20.2201 27.22C20.3037 27.2734 20.4008 27.3018 20.5001 27.3018C20.5993 27.3018 20.6964 27.2734 20.7801 27.22Z" fill="#F5F5F5"/>
<path d="M16.04 25.68C16.0316 25.7026 16.0316 25.7275 16.04 25.75V34.37C16.0539 34.598 16.1164 34.8204 16.2233 35.0222C16.3302 35.224 16.4792 35.4006 16.66 35.54L19.92 37.83C20.1071 37.9429 20.3215 38.0026 20.54 38.0026C20.7585 38.0026 20.9729 37.9429 21.16 37.83L24.42 35.54C24.6009 35.4006 24.7498 35.224 24.8567 35.0222C24.9637 34.8204 25.0262 34.598 25.04 34.37V25.75C25.0484 25.7275 25.0484 25.7026 25.04 25.68C25.0279 25.673 25.0141 25.6693 25 25.6693C24.986 25.6693 24.9722 25.673 24.96 25.68L21.33 28.05C21.084 28.2134 20.7953 28.3006 20.5 28.3006C20.2047 28.3006 19.916 28.2134 19.67 28.05L16.12 25.69C16.1088 25.6814 16.0954 25.676 16.0814 25.6742C16.0673 25.6725 16.053 25.6745 16.04 25.68ZM28.04 17.43C28.0316 17.4526 28.0316 17.4775 28.04 17.5V34.37C28.0539 34.598 28.1164 34.8204 28.2233 35.0222C28.3302 35.224 28.4792 35.4006 28.66 35.54L31.92 37.83C32.1071 37.9429 32.3215 38.0026 32.54 38.0026C32.7585 38.0026 32.9729 37.9429 33.16 37.83L36.42 35.54C36.6009 35.4006 36.7498 35.224 36.8567 35.0222C36.9637 34.8204 37.0262 34.598 37.04 34.37V17.5C37.0485 17.4775 37.0485 17.4526 37.04 17.43C37.0279 17.423 37.0141 17.4193 37 17.4193C36.986 17.4193 36.9722 17.423 36.96 17.43L33.33 19.8C33.084 19.9634 32.7953 20.0506 32.5 20.0506C32.2047 20.0506 31.916 19.9634 31.67 19.8L28.12 17.44C28.1088 17.4314 28.0954 17.426 28.0814 17.4242C28.0673 17.4225 28.053 17.4245 28.04 17.43Z" fill="#F5F5F5"/>
<path d="M32.7801 19L36.3801 16.6C36.3977 16.5851 36.4121 16.5668 36.4224 16.5462C36.4327 16.5256 36.4387 16.503 36.4401 16.48C36.4386 16.4584 36.4324 16.4374 36.4221 16.4184C36.4117 16.3995 36.3974 16.3829 36.3801 16.37L33.1201 14.17C32.933 14.0571 32.7186 13.9974 32.5001 13.9974C32.2815 13.9974 32.0672 14.0571 31.8801 14.17L28.6201 16.34C28.6027 16.3529 28.5884 16.3695 28.578 16.3884C28.5677 16.4074 28.5615 16.4284 28.5601 16.45C28.5614 16.473 28.5674 16.4956 28.5777 16.5162C28.588 16.5368 28.6024 16.5551 28.6201 16.57L32.2201 19C32.3037 19.0534 32.4008 19.0818 32.5001 19.0818C32.5993 19.0818 32.6964 19.0534 32.7801 19Z" fill="#F5F5F5"/>
</g>
<defs>
<linearGradient id="paint0_linear_5446_270" x1="0.5" y1="26" x2="52.5" y2="26" gradientUnits="userSpaceOnUse">
<stop stop-color="#35D29B"/>
<stop offset="1" stop-color="#5FA6F8"/>
</linearGradient>
<clipPath id="clip0_5446_270">
<rect width="24" height="24" fill="white" transform="translate(14.5 14)"/>
</clipPath>
</defs>
</svg>
