<svg width="53" height="52" viewBox="0 0 53 52" fill="none" xmlns="http://www.w3.org/2000/svg">
<rect x="0.5" width="52" height="52" rx="6" fill="url(#paint0_linear_5281_48547)"/>
<path d="M35.3939 29.553C35.5123 29.7901 35.5318 30.0646 35.448 30.316C35.3641 30.5675 35.1839 30.7754 34.9469 30.894L26.9469 34.894C26.8081 34.9634 26.6551 34.9995 26.4999 34.9995C26.3447 34.9995 26.1917 34.9634 26.0529 34.894L18.0529 30.894C17.8242 30.7707 17.6525 30.5631 17.5741 30.3153C17.4957 30.0676 17.5169 29.799 17.6331 29.5666C17.7493 29.3342 17.9515 29.1561 18.1967 29.0701C18.4419 28.9842 18.711 28.997 18.9469 29.106L26.4999 32.88L34.0539 29.105C34.291 28.9866 34.5655 28.9671 34.8169 29.051C35.0684 29.1348 35.2763 29.315 35.3949 29.552M35.3949 25.552C35.5133 25.7891 35.5328 26.0636 35.449 26.315C35.3651 26.5665 35.1849 26.7744 34.9479 26.893L26.9479 30.893C26.8091 30.9624 26.6561 30.9985 26.5009 30.9985C26.3457 30.9985 26.1927 30.9624 26.0539 30.893L18.0539 26.893C17.8252 26.7697 17.6535 26.5621 17.5751 26.3144C17.4967 26.0666 17.5179 25.798 17.6341 25.5656C17.7503 25.3332 17.9525 25.1551 18.1977 25.0691C18.4429 24.9832 18.712 24.996 18.9479 25.105L26.4999 28.88L34.0539 25.105C34.291 24.9866 34.5655 24.9671 34.8169 25.051C35.0684 25.1348 35.2763 25.315 35.3949 25.552ZM26.5079 17C26.5452 17 26.5822 17.0023 26.6189 17.007L26.7299 17.027L26.8159 17.051L26.8279 17.057L26.8399 17.059L26.8689 17.073L26.9189 17.092L26.9349 17.101L26.9469 17.106L34.9469 21.106C35.1128 21.1891 35.2523 21.3168 35.3497 21.4747C35.4472 21.6326 35.4988 21.8145 35.4988 22C35.4988 22.1855 35.4472 22.3674 35.3497 22.5253C35.2523 22.6832 35.1128 22.8109 34.9469 22.894L26.9469 26.894C26.8081 26.9634 26.6551 26.9995 26.4999 26.9995C26.3447 26.9995 26.1917 26.9634 26.0529 26.894L18.0529 22.894C17.887 22.8109 17.7475 22.6832 17.6501 22.5253C17.5526 22.3674 17.501 22.1855 17.501 22C17.501 21.8145 17.5526 21.6326 17.6501 21.4747C17.7475 21.3168 17.887 21.1891 18.0529 21.106L26.0529 17.106L26.0639 17.101L26.0819 17.091L26.1599 17.059L26.1709 17.057L26.1839 17.051L26.2699 17.027L26.3799 17.007L26.4359 17.002L26.5079 17Z" fill="#F5F5F5"/>
<defs>
<linearGradient id="paint0_linear_5281_48547" x1="0.5" y1="26" x2="52.5" y2="26" gradientUnits="userSpaceOnUse">
<stop stop-color="#35D29B"/>
<stop offset="1" stop-color="#5FA6F8"/>
</linearGradient>
</defs>
</svg>
