<svg width="53" height="52" viewBox="0 0 53 52" fill="none" xmlns="http://www.w3.org/2000/svg">
<rect x="0.5" width="52" height="52" rx="6" fill="url(#paint0_linear_5281_48521)"/>
<path d="M26.6002 35C26.3169 35 26.0795 34.904 25.8882 34.712C25.6969 34.52 25.6009 34.2827 25.6002 34C25.6002 33.8833 25.6252 33.7623 25.6752 33.637C25.7252 33.5117 25.8002 33.3993 25.9002 33.3L30.1752 29.025C30.2752 28.925 30.3252 28.804 30.3252 28.662C30.3252 28.52 30.2752 28.3993 30.1752 28.3C30.0752 28.2007 29.9542 28.1547 29.8122 28.162C29.6702 28.1693 29.5495 28.2237 29.4502 28.325L25.2002 32.575C25.1002 32.675 24.9919 32.75 24.8752 32.8C24.7585 32.85 24.6335 32.875 24.5002 32.875C24.2169 32.875 23.9795 32.779 23.7882 32.587C23.5969 32.395 23.5009 32.158 23.5002 31.876C23.5002 31.7093 23.5252 31.5717 23.5752 31.463C23.6252 31.3543 23.6919 31.2587 23.7752 31.176L28.0502 26.9C28.1502 26.8 28.2002 26.6833 28.2002 26.55C28.2002 26.4167 28.1502 26.3 28.0502 26.2C27.9502 26.1 27.8335 26.05 27.7002 26.05C27.5669 26.05 27.4502 26.1 27.3502 26.2L23.0752 30.45C22.9752 30.55 22.8669 30.625 22.7502 30.675C22.6335 30.725 22.5002 30.75 22.3502 30.75C22.0835 30.75 21.8502 30.65 21.6502 30.45C21.4502 30.25 21.3502 30.0167 21.3502 29.75C21.3502 29.6167 21.3752 29.4917 21.4252 29.375C21.4752 29.2583 21.5502 29.15 21.6502 29.05L25.9002 24.8C26.0002 24.7 26.0502 24.579 26.0502 24.437C26.0502 24.295 26.0002 24.1743 25.9002 24.075C25.8002 23.9757 25.6835 23.9257 25.5502 23.925C25.4169 23.9243 25.3002 23.9743 25.2002 24.075L20.9502 28.35C20.8669 28.4333 20.7669 28.5 20.6502 28.55C20.5335 28.6 20.3919 28.625 20.2252 28.625C19.9419 28.625 19.7045 28.529 19.5132 28.337C19.3219 28.145 19.2259 27.9077 19.2252 27.625C19.2252 27.4917 19.2502 27.3667 19.3002 27.25C19.3502 27.1333 19.4252 27.025 19.5252 26.925L24.4252 22.025C24.6085 21.8417 24.8379 21.7583 25.1132 21.775C25.3885 21.7917 25.6175 21.8917 25.8002 22.075L28.8502 25.125C29.0335 25.3083 29.2502 25.4543 29.5002 25.563C29.7502 25.6717 30.0002 25.7257 30.2502 25.725C30.7835 25.725 31.2502 25.5377 31.6502 25.163C32.0502 24.7883 32.2502 24.309 32.2502 23.725C32.2502 23.4917 32.2085 23.25 32.1252 23C32.0419 22.75 31.8919 22.5167 31.6752 22.3L28.2502 18.875C28.0669 18.6917 27.9459 18.4917 27.8872 18.275C27.8285 18.0583 27.8579 17.85 27.9752 17.65C28.1252 17.4 28.3169 17.2167 28.5502 17.1C28.7835 16.9833 29.0419 16.925 29.3252 16.925C29.6752 16.925 30.0335 17.0083 30.4002 17.175C30.7669 17.3417 31.1002 17.575 31.4002 17.875L35.6252 22.125C35.9252 22.425 36.1462 22.7583 36.2882 23.125C36.4302 23.4917 36.5009 23.9167 36.5002 24.4C36.5002 24.7333 36.4252 25.071 36.2752 25.413C36.1252 25.755 35.9085 26.0673 35.6252 26.35L27.3002 34.7C27.1669 34.8333 27.0502 34.9167 26.9502 34.95C26.8502 34.9833 26.7335 35 26.6002 35ZM17.4002 26.125C17.0835 25.8917 16.8462 25.6127 16.6882 25.288C16.5302 24.9633 16.4509 24.6173 16.4502 24.25C16.4502 23.8667 16.5295 23.4917 16.6882 23.125C16.8469 22.7583 17.0759 22.425 17.3752 22.125L21.6002 17.875C21.8835 17.5917 22.1962 17.375 22.5382 17.225C22.8802 17.075 23.2425 17 23.6252 17C24.0419 17 24.4462 17.075 24.8382 17.225C25.2302 17.375 25.5675 17.5917 25.8502 17.875L30.9752 23C31.0585 23.0833 31.1295 23.1877 31.1882 23.313C31.2469 23.4383 31.2759 23.5673 31.2752 23.7C31.2752 23.9833 31.1795 24.221 30.9882 24.413C30.7969 24.605 30.5592 24.7007 30.2752 24.7C30.1419 24.7 30.0129 24.671 29.8882 24.613C29.7635 24.555 29.6592 24.484 29.5752 24.4L26.5002 21.35C26.1169 20.9667 25.6462 20.775 25.0882 20.775C24.5302 20.775 24.0592 20.9667 23.6752 21.35L18.9752 26.05C18.7585 26.2667 18.5045 26.3793 18.2132 26.388C17.9219 26.3967 17.6509 26.309 17.4002 26.125Z" fill="#F5F5F5"/>
<defs>
<linearGradient id="paint0_linear_5281_48521" x1="0.5" y1="26" x2="52.5" y2="26" gradientUnits="userSpaceOnUse">
<stop stop-color="#35D29B"/>
<stop offset="1" stop-color="#5FA6F8"/>
</linearGradient>
</defs>
</svg>
