<svg width="53" height="52" viewBox="0 0 53 52" fill="none" xmlns="http://www.w3.org/2000/svg">
<rect x="0.5" width="52" height="52" rx="6" fill="url(#paint0_linear_5446_277)"/>
<path d="M28.75 30.952V18.054C28.217 18.314 27.694 18.724 27.1 19.216L26.939 19.35C26.193 19.97 25.315 20.702 24.25 21.052V33.951C24.784 33.69 25.306 33.28 25.9 32.789L26.061 32.654C26.807 32.034 27.685 31.303 28.75 30.952ZM32.842 17.006C33.149 17.129 33.428 17.241 33.694 17.332L33.731 17.345C34.194 17.505 34.601 17.645 34.923 17.801C35.274 17.97 35.591 18.186 35.833 18.533C36.073 18.877 36.167 19.251 36.21 19.64C36.25 20.003 36.25 20.444 36.25 20.951V29.455C36.25 30.181 36.25 30.789 36.196 31.268C36.141 31.763 36.017 32.249 35.67 32.643C35.4618 32.8772 35.2079 33.0664 34.924 33.199C34.389 33.446 33.843 33.452 33.35 33.367C32.867 33.284 32.39 33.104 31.97 32.93C31.83 32.872 31.696 32.8157 31.568 32.761C31.288 32.642 31.032 32.533 30.769 32.441C30.395 32.308 30.102 32.247 29.867 32.255C29.7202 32.259 29.5744 32.2791 29.432 32.315C28.565 32.528 27.833 33.134 26.928 33.885L26.856 33.944C25.982 34.668 24.923 35.532 23.558 35.721C23.13 35.781 22.583 35.743 22.031 35.659C21.4201 35.5621 20.8169 35.4217 20.226 35.239C19.6244 35.0585 19.0412 34.8218 18.484 34.532C17.979 34.263 17.476 33.915 17.167 33.472C16.927 33.127 16.833 32.753 16.79 32.364C16.75 32.001 16.75 31.561 16.75 31.053V22.549C16.75 21.823 16.75 21.215 16.804 20.736C16.859 20.241 16.983 19.755 17.33 19.361C17.538 19.126 17.791 18.936 18.076 18.805C18.611 18.558 19.157 18.552 19.65 18.637C20.133 18.721 20.61 18.9 21.03 19.074C21.17 19.132 21.304 19.1883 21.432 19.243C21.712 19.363 21.968 19.471 22.231 19.563C22.606 19.696 22.898 19.758 23.133 19.749C23.2797 19.7437 23.4247 19.7237 23.568 19.689C24.435 19.476 25.167 18.87 26.072 18.119L26.144 18.06C27.018 17.337 28.077 16.473 29.442 16.283C30.26 16.17 31.069 16.365 31.768 16.6C32.122 16.72 32.47 16.858 32.79 16.986L32.842 17.006Z" fill="#F5F5F5"/>
<defs>
<linearGradient id="paint0_linear_5446_277" x1="0.5" y1="26" x2="52.5" y2="26" gradientUnits="userSpaceOnUse">
<stop stop-color="#35D29B"/>
<stop offset="1" stop-color="#5FA6F8"/>
</linearGradient>
</defs>
</svg>
