<svg width="53" height="52" viewBox="0 0 53 52" fill="none" xmlns="http://www.w3.org/2000/svg">
<rect x="0.5" width="52" height="52" rx="6" fill="url(#paint0_linear_5446_298)"/>
<g clip-path="url(#clip0_5446_298)">
<path d="M28.9001 26.0001C28.8981 26.4733 28.7563 26.9353 28.4925 27.3281C28.2286 27.721 27.8545 28.027 27.4172 28.2079C26.9799 28.3887 26.4989 28.4362 26.0347 28.3444C25.5705 28.2526 25.1437 28.0257 24.8081 27.6921C24.4745 27.3565 24.2476 26.9297 24.1558 26.4655C24.064 26.0013 24.1115 25.5203 24.2923 25.083C24.4732 24.6457 24.7792 24.2716 25.172 24.0077C25.5649 23.7439 26.0269 23.602 26.5001 23.6001V14.0001C28.0773 13.9953 29.6399 14.3024 31.098 14.9038C32.556 15.5052 33.8808 16.3889 34.996 17.5042C36.1113 18.6194 36.995 19.9442 37.5964 21.4022C38.1977 22.8603 38.5049 24.4229 38.5001 26.0001H28.9001ZM38.3801 27.6921C38.0659 29.8988 37.1432 31.9744 35.7155 33.6861C34.2879 35.3979 32.4117 36.6782 30.2972 37.3836C28.1828 38.0889 25.9137 38.1914 23.7442 37.6795C21.5748 37.1676 19.5909 36.0616 18.0147 34.4855C16.4386 32.9093 15.3326 30.9254 14.8207 28.7559C14.3088 26.5865 14.4113 24.3174 15.1166 22.203C15.822 20.0885 17.1023 18.2123 18.8141 16.7846C20.5258 15.357 22.6014 14.4343 24.8081 14.1201V16.5561C23.0824 16.8665 21.4747 17.6436 20.1594 18.8032C18.8441 19.9627 17.8715 21.4603 17.3471 23.1334C16.8228 24.8066 16.7667 26.5914 17.1849 28.2942C17.6031 29.997 18.4797 31.5528 19.7196 32.7926C20.9594 34.0325 22.5152 34.9091 24.218 35.3273C25.9208 35.7455 27.7056 35.6894 29.3788 35.1651C31.0519 34.6407 32.5495 33.6681 33.709 32.3528C34.8686 31.0375 35.6457 29.4298 35.9561 27.7041H38.3801V27.6921ZM33.4961 27.6921C33.1936 28.9335 32.5662 30.072 31.6782 30.9908C30.7902 31.9097 29.6738 32.5756 28.4434 32.9203C27.213 33.2651 25.913 33.2762 24.677 32.9525C23.4409 32.6288 22.3132 31.982 21.4097 31.0785C20.5062 30.175 19.8594 29.0473 19.5357 27.8112C19.212 26.5751 19.2231 25.2752 19.5679 24.0448C19.9126 22.8144 20.5785 21.698 21.4973 20.81C22.4161 19.922 23.5547 19.2946 24.7961 18.9921V21.5121C24.045 21.795 23.377 22.2622 22.8537 22.8708C22.3303 23.4794 21.9684 24.2098 21.8011 24.9948C21.6338 25.7799 21.6666 26.5944 21.8964 27.3634C22.1261 28.1325 22.5456 28.8315 23.1161 29.3961C23.6839 29.9603 24.3838 30.3736 25.1521 30.5983C25.9204 30.823 26.7327 30.852 27.5151 30.6826C28.2974 30.5133 29.025 30.151 29.6316 29.6286C30.2382 29.1063 30.7045 28.4406 30.9881 27.6921H33.5081H33.4961Z" fill="#F5F5F5"/>
</g>
<defs>
<linearGradient id="paint0_linear_5446_298" x1="0.5" y1="26" x2="52.5" y2="26" gradientUnits="userSpaceOnUse">
<stop stop-color="#35D29B"/>
<stop offset="1" stop-color="#5FA6F8"/>
</linearGradient>
<clipPath id="clip0_5446_298">
<rect width="24" height="24" fill="white" transform="translate(14.5 14)"/>
</clipPath>
</defs>
</svg>
