<svg width="53" height="52" viewBox="0 0 53 52" fill="none" xmlns="http://www.w3.org/2000/svg">
<rect x="0.5" width="52" height="52" rx="6" fill="url(#paint0_linear_5281_48539)"/>
<g clip-path="url(#clip0_5281_48539)">
<path d="M23.8284 14.3281C24.269 13.8875 24.9815 13.8875 25.4174 14.3281L29.6081 18.5188L32.1862 15.9406C32.7721 15.3547 33.7237 15.3547 34.3096 15.9406L36.5596 18.1906C37.1456 18.7766 37.1456 19.7281 36.5596 20.3141L33.9815 22.8922L38.1721 27.0828C38.6128 27.5234 38.6128 28.2359 38.1721 28.6719L33.6721 33.1719C33.2315 33.6125 32.519 33.6125 32.0831 33.1719L27.8924 28.9813L27.1659 29.7078C27.7003 30.8609 28.0003 32.1453 28.0003 33.5C28.0003 34.9859 27.6393 36.3828 27.0065 37.6156C26.7862 38.0375 26.2237 38.0984 25.8909 37.7609L21.3768 33.2469L18.5643 36.0594C17.9784 36.6453 17.0268 36.6453 16.4409 36.0594C15.8549 35.4734 15.8549 34.5219 16.4409 33.9359L19.2534 31.1234L14.7393 26.6094C14.4018 26.2719 14.4628 25.7094 14.8846 25.4938C16.1174 24.8563 17.519 24.5 19.0003 24.5C20.3549 24.5 21.6393 24.8 22.7924 25.3344L23.519 24.6078L19.3284 20.4219C18.8878 19.9813 18.8878 19.2688 19.3284 18.8328L23.8284 14.3281ZM24.6253 16.7141L21.7143 19.625L25.1081 23.0188L28.019 20.1078L24.6253 16.7141ZM32.8753 30.7859L35.7862 27.875L32.3924 24.4813L29.4815 27.3922L32.8753 30.7859Z" fill="#F5F5F5"/>
</g>
<defs>
<linearGradient id="paint0_linear_5281_48539" x1="0.5" y1="26" x2="52.5" y2="26" gradientUnits="userSpaceOnUse">
<stop stop-color="#35D29B"/>
<stop offset="1" stop-color="#5FA6F8"/>
</linearGradient>
<clipPath id="clip0_5281_48539">
<rect width="24" height="24" fill="white" transform="translate(14.5 14)"/>
</clipPath>
</defs>
</svg>
