<svg width="53" height="52" viewBox="0 0 53 52" fill="none" xmlns="http://www.w3.org/2000/svg">
<rect x="0.5" width="52" height="52" rx="6" fill="url(#paint0_linear_5446_230)"/>
<path d="M35.45 25H37V27H35.45C35 31.17 31.67 34.5 27.5 34.95V36.5H25.5V34.95C21.33 34.5 18 31.17 17.55 27H16V25H17.55C18 20.83 21.33 17.5 25.5 17.05V15.5H27.5V17.05C31.67 17.5 35 20.83 35.45 25ZM19.57 25H21V27H19.57C19.7825 28.4975 20.4757 29.8854 21.5451 30.9549C22.6146 32.0243 24.0025 32.7175 25.5 32.93V31.5H27.5V32.93C28.9975 32.7175 30.3854 32.0243 31.4549 30.9549C32.5243 29.8854 33.2175 28.4975 33.43 27H32V25H33.43C33.2175 23.5025 32.5243 22.1146 31.4549 21.0451C30.3854 19.9757 28.9975 19.2825 27.5 19.07V20.5H25.5V19.07C24.0025 19.2825 22.6146 19.9757 21.5451 21.0451C20.4757 22.1146 19.7825 23.5025 19.57 25ZM30.5 30H22.5V29C22.5 27.67 25.17 27 26.5 27C27.83 27 30.5 27.67 30.5 29V30ZM26.5 22C27.0304 22 27.5391 22.2107 27.9142 22.5858C28.2893 22.9609 28.5 23.4696 28.5 24C28.5 24.5304 28.2893 25.0391 27.9142 25.4142C27.5391 25.7893 27.0304 26 26.5 26C25.9696 26 25.4609 25.7893 25.0858 25.4142C24.7107 25.0391 24.5 24.5304 24.5 24C24.5 23.4696 24.7107 22.9609 25.0858 22.5858C25.4609 22.2107 25.9696 22 26.5 22Z" fill="#F5F5F5"/>
<defs>
<linearGradient id="paint0_linear_5446_230" x1="0.5" y1="26" x2="52.5" y2="26" gradientUnits="userSpaceOnUse">
<stop stop-color="#35D29B"/>
<stop offset="1" stop-color="#5FA6F8"/>
</linearGradient>
</defs>
</svg>
