<svg width="53" height="52" viewBox="0 0 53 52" fill="none" xmlns="http://www.w3.org/2000/svg">
<rect x="0.5" width="52" height="52" rx="6" fill="url(#paint0_linear_5257_53907)"/>
<g clip-path="url(#clip0_5257_53907)">
<path d="M21.9125 26C20.5625 26.0417 19.4583 26.575 18.6 27.6H16.925C16.2417 27.6 15.6667 27.4312 15.2 27.0937C14.7333 26.7562 14.5 26.2625 14.5 25.6125C14.5 22.6708 15.0167 21.2 16.05 21.2C16.1 21.2 16.2812 21.2875 16.5938 21.4625C16.9062 21.6375 17.3125 21.8146 17.8125 21.9937C18.3125 22.1729 18.8083 22.2625 19.3 22.2625C19.8583 22.2625 20.4125 22.1667 20.9625 21.975C20.9208 22.2833 20.9 22.5583 20.9 22.8C20.9 23.9583 21.2375 25.025 21.9125 26ZM35.3 33.9625C35.3 34.9625 34.9958 35.7521 34.3875 36.3312C33.7792 36.9104 32.9708 37.2 31.9625 37.2H21.0375C20.0292 37.2 19.2208 36.9104 18.6125 36.3312C18.0042 35.7521 17.7 34.9625 17.7 33.9625C17.7 33.5208 17.7146 33.0896 17.7438 32.6687C17.7729 32.2479 17.8312 31.7937 17.9188 31.3062C18.0063 30.8187 18.1167 30.3667 18.25 29.95C18.3833 29.5333 18.5625 29.1271 18.7875 28.7312C19.0125 28.3354 19.2708 27.9979 19.5625 27.7187C19.8542 27.4396 20.2104 27.2167 20.6312 27.05C21.0521 26.8833 21.5167 26.8 22.025 26.8C22.1083 26.8 22.2875 26.8896 22.5625 27.0687C22.8375 27.2479 23.1417 27.4479 23.475 27.6687C23.8083 27.8896 24.2542 28.0896 24.8125 28.2687C25.3708 28.4479 25.9333 28.5375 26.5 28.5375C27.0667 28.5375 27.6292 28.4479 28.1875 28.2687C28.7458 28.0896 29.1917 27.8896 29.525 27.6687C29.8583 27.4479 30.1625 27.2479 30.4375 27.0687C30.7125 26.8896 30.8917 26.8 30.975 26.8C31.4833 26.8 31.9479 26.8833 32.3687 27.05C32.7896 27.2167 33.1458 27.4396 33.4375 27.7187C33.7292 27.9979 33.9875 28.3354 34.2125 28.7312C34.4375 29.1271 34.6167 29.5333 34.75 29.95C34.8833 30.3667 34.9937 30.8187 35.0813 31.3062C35.1688 31.7937 35.2271 32.2479 35.2563 32.6687C35.2854 33.0896 35.3 33.5208 35.3 33.9625ZM22.5 18C22.5 18.8833 22.1875 19.6375 21.5625 20.2625C20.9375 20.8875 20.1833 21.2 19.3 21.2C18.4167 21.2 17.6625 20.8875 17.0375 20.2625C16.4125 19.6375 16.1 18.8833 16.1 18C16.1 17.1167 16.4125 16.3625 17.0375 15.7375C17.6625 15.1125 18.4167 14.8 19.3 14.8C20.1833 14.8 20.9375 15.1125 21.5625 15.7375C22.1875 16.3625 22.5 17.1167 22.5 18ZM31.3 22.8C31.3 24.125 30.8313 25.2562 29.8938 26.1937C28.9563 27.1312 27.825 27.6 26.5 27.6C25.175 27.6 24.0437 27.1312 23.1062 26.1937C22.1688 25.2562 21.7 24.125 21.7 22.8C21.7 21.475 22.1688 20.3437 23.1062 19.4062C24.0437 18.4687 25.175 18 26.5 18C27.825 18 28.9563 18.4687 29.8938 19.4062C30.8313 20.3437 31.3 21.475 31.3 22.8ZM38.5 25.6125C38.5 26.2625 38.2667 26.7562 37.8 27.0937C37.3333 27.4312 36.7583 27.6 36.075 27.6H34.4C33.5417 26.575 32.4375 26.0417 31.0875 26C31.7625 25.025 32.1 23.9583 32.1 22.8C32.1 22.5583 32.0792 22.2833 32.0375 21.975C32.5875 22.1667 33.1417 22.2625 33.7 22.2625C34.1917 22.2625 34.6875 22.1729 35.1875 21.9937C35.6875 21.8146 36.0938 21.6375 36.4062 21.4625C36.7188 21.2875 36.9 21.2 36.95 21.2C37.9833 21.2 38.5 22.6708 38.5 25.6125ZM36.9 18C36.9 18.8833 36.5875 19.6375 35.9625 20.2625C35.3375 20.8875 34.5833 21.2 33.7 21.2C32.8167 21.2 32.0625 20.8875 31.4375 20.2625C30.8125 19.6375 30.5 18.8833 30.5 18C30.5 17.1167 30.8125 16.3625 31.4375 15.7375C32.0625 15.1125 32.8167 14.8 33.7 14.8C34.5833 14.8 35.3375 15.1125 35.9625 15.7375C36.5875 16.3625 36.9 17.1167 36.9 18Z" fill="#F5F5F5"/>
</g>
<defs>
<linearGradient id="paint0_linear_5257_53907" x1="0.5" y1="26" x2="52.5" y2="26" gradientUnits="userSpaceOnUse">
<stop stop-color="#35D29B"/>
<stop offset="1" stop-color="#5FA6F8"/>
</linearGradient>
<clipPath id="clip0_5257_53907">
<rect width="24" height="22.4" fill="white" transform="translate(14.5 14.8)"/>
</clipPath>
</defs>
</svg>
