<svg width="53" height="52" viewBox="0 0 53 52" fill="none" xmlns="http://www.w3.org/2000/svg">
<rect x="0.5" width="52" height="52" rx="6" fill="url(#paint0_linear_5446_284)"/>
<path d="M26.5 16.25C21.1155 16.25 16.75 20.6155 16.75 26C16.75 31.3845 21.1155 35.75 26.5 35.75C31.8845 35.75 36.25 31.3845 36.25 26C36.25 20.6155 31.8845 16.25 26.5 16.25ZM30.423 29.4992C29.7485 30.2519 28.8715 30.7943 27.8969 31.0618C26.9223 31.3292 25.8913 31.3103 24.9272 31.0072C23.963 30.7042 23.1066 30.1299 22.4602 29.353C21.8139 28.5761 21.4049 27.6294 21.2823 26.6262C21.1273 26.7289 20.9396 26.7702 20.7557 26.7423C20.5719 26.7143 20.4049 26.619 20.2874 26.4749C20.1698 26.3309 20.11 26.1482 20.1194 25.9625C20.1289 25.7768 20.2071 25.6012 20.3387 25.4698L21.445 24.3636C21.5836 24.225 21.7709 24.1462 21.9669 24.144C22.1629 24.1418 22.3519 24.2164 22.4936 24.3519L23.65 25.4581C23.7798 25.5814 23.8613 25.747 23.8797 25.925C23.8982 26.1031 23.8523 26.2819 23.7504 26.4291C23.6485 26.5762 23.4973 26.6821 23.3241 26.7276C23.151 26.773 22.9673 26.755 22.8062 26.6769C22.9347 27.3681 23.2543 28.0095 23.7288 28.5283C24.2033 29.0471 24.8136 29.4225 25.4907 29.612C26.1677 29.8015 26.8843 29.7975 27.5591 29.6004C28.234 29.4034 28.8401 29.0211 29.3088 28.497C29.4433 28.3548 29.628 28.2708 29.8237 28.2629C30.0193 28.2551 30.2102 28.324 30.3557 28.455C30.5011 28.5861 30.5896 28.7688 30.6022 28.9641C30.6147 29.1595 30.5504 29.352 30.423 29.5006V29.4992ZM32.6617 26.5302L31.5555 27.6364C31.4169 27.775 31.2295 27.8538 31.0336 27.856C30.8376 27.8582 30.6485 27.7836 30.5069 27.6481L29.3505 26.5419C29.2231 26.4193 29.1431 26.2557 29.1247 26.0799C29.1062 25.904 29.1504 25.7274 29.2496 25.581C29.3487 25.4346 29.4963 25.328 29.6664 25.2799C29.8365 25.2317 30.0181 25.2452 30.1792 25.318C30.0504 24.6283 29.7311 23.9885 29.2575 23.4709C28.7838 22.9533 28.1747 22.5786 27.4992 22.3893C26.8236 22.2 26.1085 22.2036 25.4349 22.3996C24.7612 22.5957 24.1559 22.9764 23.6875 23.4987C23.6217 23.5721 23.5422 23.6317 23.4533 23.6743C23.3645 23.7168 23.2682 23.7415 23.1698 23.7468C23.0715 23.7521 22.973 23.7381 22.8801 23.7053C22.7872 23.6726 22.7017 23.6219 22.6284 23.5562C22.555 23.4904 22.4954 23.4108 22.4528 23.322C22.4103 23.2332 22.3856 23.1368 22.3803 23.0385C22.375 22.9401 22.3891 22.8417 22.4218 22.7488C22.4545 22.6559 22.5052 22.5703 22.5709 22.497C23.2459 21.7444 24.1236 21.2024 25.0987 20.9358C26.0739 20.6693 27.1052 20.6895 28.0692 20.994C29.0332 21.2986 29.8889 21.8746 30.5339 22.653C31.1789 23.4315 31.5859 24.3793 31.7059 25.3831C31.86 25.2781 32.0476 25.2342 32.2322 25.26C32.4169 25.2858 32.5853 25.3795 32.7046 25.5227C32.824 25.6659 32.8857 25.8484 32.8777 26.0347C32.8698 26.221 32.7928 26.3976 32.6617 26.5302Z" fill="#F5F5F5"/>
<defs>
<linearGradient id="paint0_linear_5446_284" x1="0.5" y1="26" x2="52.5" y2="26" gradientUnits="userSpaceOnUse">
<stop stop-color="#35D29B"/>
<stop offset="1" stop-color="#5FA6F8"/>
</linearGradient>
</defs>
</svg>
