<svg width="53" height="52" viewBox="0 0 53 52" fill="none" xmlns="http://www.w3.org/2000/svg">
<rect x="0.5" width="52" height="52" rx="6" fill="url(#paint0_linear_5281_48531)"/>
<g clip-path="url(#clip0_5281_48531)">
<path d="M35.5 35.75C35.4015 35.7502 35.3039 35.7308 35.2129 35.6931C35.122 35.6554 35.0393 35.6 34.9698 35.5302L16.9698 17.5302C16.8351 17.3884 16.7611 17.1996 16.7636 17.004C16.7661 16.8084 16.8449 16.6216 16.9832 16.4833C17.1215 16.345 17.3084 16.2662 17.504 16.2637C17.6995 16.2612 17.8884 16.3351 18.0302 16.4699L36.0302 34.4699C36.135 34.5748 36.2064 34.7084 36.2353 34.8538C36.2642 34.9992 36.2493 35.15 36.1926 35.287C36.1358 35.424 36.0398 35.5411 35.9165 35.6235C35.7932 35.7059 35.6483 35.75 35.5 35.75ZM16.315 23.2241C15.1277 24.3069 14.5 25.7853 14.5 27.5C14.5 29.1875 15.1741 30.7288 16.398 31.8402C17.5769 32.9108 19.1669 33.5 20.875 33.5H29.9125C29.9867 33.5001 30.0593 33.4781 30.121 33.4369C30.1827 33.3957 30.2308 33.3371 30.2592 33.2686C30.2876 33.2 30.2951 33.1246 30.2806 33.0518C30.2661 32.979 30.2303 32.9122 30.1778 32.8597L19.2287 21.9106C19.1806 21.8624 19.1203 21.8282 19.0543 21.8117C18.9882 21.7952 18.9189 21.797 18.8537 21.8169C17.875 22.1164 17.0031 22.596 16.315 23.2241ZM36.8402 32.3389C37.9263 31.4741 38.5 30.1902 38.5 28.625C38.5 25.9264 36.5312 24.3791 34.3956 23.9024C34.2551 23.8704 34.1269 23.7986 34.0261 23.6956C33.9254 23.5926 33.8564 23.4627 33.8275 23.3216C33.4675 21.6022 32.6814 20.127 31.5222 19.0091C30.173 17.712 28.3716 16.9914 26.5 17C25.0413 17 23.6819 17.4219 22.5334 18.2235C22.488 18.2546 22.4499 18.2953 22.4219 18.3428C22.394 18.3903 22.3769 18.4434 22.3718 18.4983C22.3667 18.5531 22.3737 18.6084 22.3924 18.6603C22.4111 18.7121 22.441 18.7592 22.48 18.7981L36.1413 32.4594C36.2033 32.5214 36.2851 32.5598 36.3724 32.5677C36.4598 32.5757 36.5472 32.5528 36.6194 32.503C36.6953 32.4505 36.7689 32.3958 36.8402 32.3389Z" fill="#F5F5F5"/>
</g>
<defs>
<linearGradient id="paint0_linear_5281_48531" x1="0.5" y1="26" x2="52.5" y2="26" gradientUnits="userSpaceOnUse">
<stop stop-color="#35D29B"/>
<stop offset="1" stop-color="#5FA6F8"/>
</linearGradient>
<clipPath id="clip0_5281_48531">
<rect width="24" height="24" fill="white" transform="translate(14.5 14)"/>
</clipPath>
</defs>
</svg>
