<svg width="42" height="43" viewBox="0 0 42 43" fill="none" xmlns="http://www.w3.org/2000/svg">
<path d="M29.7668 28.3791L27.9173 26.4819L25.9795 28.3558L27.9112 30.502C28.1779 30.7983 28.197 31.2422 27.9567 31.5603L27.707 31.8909C27.4613 32.2161 27.4873 32.6713 27.7684 32.9664L36.3724 41.9991C36.7033 42.3464 37.2585 42.3428 37.5849 41.9912L40.9432 38.3728C41.2437 38.049 41.2389 37.547 40.9323 37.229L32.3027 28.28C32.0047 27.9709 31.5205 27.9393 31.1848 28.207L30.8816 28.4488C30.5473 28.7154 30.0653 28.6853 29.7668 28.3791Z" fill="#F9FCFF" stroke="#F9FCFF" stroke-width="0.832159"/>
<ellipse cx="16.6219" cy="16.8238" rx="14.5711" ry="14.5711" fill="#0D47A1" stroke="#F9FCFF" stroke-width="2.65287"/>
<path d="M27.9849 17.2397C27.7659 23.3288 22.764 28.1976 16.6216 28.1978C10.479 28.1978 5.4763 23.3288 5.25732 17.2397L16.6216 17.2407L27.9849 17.2397Z" fill="#0D47A1" stroke="#F9FCFF" stroke-width="0.832983"/>
<path d="M20.2569 21.8101C20.2232 21.7719 19.8768 21.7719 19.8768 21.7719C19.8768 21.7719 19.5786 21.769 19.5156 21.7651C19.4526 21.7612 19.3851 21.8435 19.4569 21.8507C19.5287 21.8579 20.1962 21.9702 20.2459 21.9198C20.2956 21.8694 20.2907 21.8484 20.2569 21.8101Z" fill="#333333"/>
<path d="M19.8992 21.8431C19.8686 21.8563 19.3496 21.8526 19.3823 21.8431C19.4151 21.8337 19.4906 21.748 19.4906 21.666C19.4906 21.584 19.4679 21.2087 19.4906 21.2087H19.723C19.7477 21.2087 19.723 21.5002 19.723 21.5964C19.723 21.6926 19.9299 21.8299 19.8992 21.8431Z" fill="#333333"/>
<path d="M19.7323 21.2089C19.7323 21.1827 19.6465 21.2089 19.6465 21.2089V21.8477H19.8881C19.9453 21.8477 19.7323 21.697 19.7323 21.5922V21.2089Z" fill="#333333"/>
<path d="M19.7323 21.2089C19.7323 21.1827 19.6465 21.2089 19.6465 21.2089V21.8477H19.8881C19.9453 21.8477 19.7323 21.697 19.7323 21.5922V21.2089Z" fill="#272B6B" fill-opacity="0.05"/>
<path d="M18.9015 20.8563C18.8927 20.6453 19.4877 19.0031 19.5828 19.0354C19.6779 19.0677 20.3378 20.6334 20.2995 20.8563C20.2611 21.0792 19.8029 21.2087 19.7473 21.2087H19.4536C19.39 21.2087 18.9102 21.0673 18.9015 20.8563Z" fill="#009688"/>
<path d="M19.3998 19.3558C19.4782 19.1858 19.5468 19.0361 19.5843 19.0361C19.7115 19.2055 20.3743 20.5191 20.2886 20.8992C20.2533 21.0854 19.7474 21.2118 19.7474 21.2118C19.6745 21.2326 19.6156 21.226 19.442 21.2118C19.2684 21.1976 19.1152 21.115 19.2305 21.0708C19.381 20.9879 19.442 20.8798 19.442 20.8798C19.6687 20.5963 19.4627 19.6317 19.3998 19.3558Z" fill="#009688"/>
<path d="M19.3998 19.3558C19.4782 19.1858 19.5468 19.0361 19.5843 19.0361C19.7115 19.2055 20.3743 20.5191 20.2886 20.8992C20.2533 21.0854 19.7474 21.2118 19.7474 21.2118C19.6745 21.2326 19.6156 21.226 19.442 21.2118C19.2684 21.1976 19.1152 21.115 19.2305 21.0708C19.381 20.9879 19.442 20.8798 19.442 20.8798C19.6687 20.5963 19.4627 19.6317 19.3998 19.3558Z" fill="#333333" fill-opacity="0.15"/>
<path d="M19.5362 19.2701C19.4652 19.1755 19.5505 19.0236 19.5847 19.0375C19.6479 19.0632 20.3905 20.5441 20.2972 20.8881C20.2786 21.0574 19.642 21.3162 19.7136 21.1848C19.7852 21.0533 20.0453 20.7933 19.9591 20.3391C19.873 19.885 19.6039 19.3602 19.5362 19.2701Z" fill="#009688"/>
<path d="M19.5362 19.2701C19.4652 19.1755 19.5505 19.0236 19.5847 19.0375C19.6479 19.0632 20.3905 20.5441 20.2972 20.8881C20.2786 21.0574 19.642 21.3162 19.7136 21.1848C19.7852 21.0533 20.0453 20.7933 19.9591 20.3391C19.873 19.885 19.6039 19.3602 19.5362 19.2701Z" fill="#333333" fill-opacity="0.35"/>
<path d="M18.9215 24.8812C18.8877 24.8429 18.5413 24.8429 18.5413 24.8429C18.5413 24.8429 18.2432 24.84 18.1802 24.8361C18.1172 24.8322 18.0496 24.9145 18.1215 24.9217C18.1933 24.929 18.8608 25.0412 18.9104 24.9908C18.9601 24.9404 18.9552 24.9194 18.9215 24.8812Z" fill="#333333"/>
<path d="M18.5638 24.9142C18.5332 24.9274 18.0141 24.9236 18.0469 24.9142C18.0797 24.9047 18.1552 24.8191 18.1552 24.7371C18.1552 24.6551 18.1325 24.2798 18.1552 24.2798H18.3876C18.4122 24.2798 18.3876 24.5713 18.3876 24.6675C18.3876 24.7636 18.5944 24.9009 18.5638 24.9142Z" fill="#333333"/>
<path d="M18.3969 24.2804C18.3969 24.2542 18.311 24.2804 18.311 24.2804V24.9192H18.5526C18.6099 24.9192 18.3969 24.7685 18.3969 24.6637V24.2804Z" fill="#333333"/>
<path d="M18.3969 24.2804C18.3969 24.2542 18.311 24.2804 18.311 24.2804V24.9192H18.5526C18.6099 24.9192 18.3969 24.7685 18.3969 24.6637V24.2804Z" fill="#272B6B" fill-opacity="0.05"/>
<path d="M17.566 23.9273C17.5573 23.7163 18.1523 22.0741 18.2474 22.1064C18.3425 22.1387 19.0023 23.7044 18.964 23.9273C18.9257 24.1502 18.4675 24.2798 18.4119 24.2798H18.1182C18.0545 24.2798 17.5748 24.1383 17.566 23.9273Z" fill="#009688"/>
<path d="M18.0638 22.4271C18.1423 22.2571 18.2109 22.1074 18.2484 22.1074C18.3756 22.2768 19.0384 23.5903 18.9527 23.9705C18.9174 24.1567 18.4115 24.2831 18.4115 24.2831C18.3386 24.3039 18.2796 24.2972 18.106 24.2831C17.9324 24.2689 17.7792 24.1862 17.8946 24.1421C18.0451 24.0592 18.106 23.9511 18.106 23.9511C18.3328 23.6676 18.1267 22.703 18.0638 22.4271Z" fill="#009688"/>
<path d="M18.0638 22.4271C18.1423 22.2571 18.2109 22.1074 18.2484 22.1074C18.3756 22.2768 19.0384 23.5903 18.9527 23.9705C18.9174 24.1567 18.4115 24.2831 18.4115 24.2831C18.3386 24.3039 18.2796 24.2972 18.106 24.2831C17.9324 24.2689 17.7792 24.1862 17.8946 24.1421C18.0451 24.0592 18.106 23.9511 18.106 23.9511C18.3328 23.6676 18.1267 22.703 18.0638 22.4271Z" fill="#333333" fill-opacity="0.15"/>
<path d="M18.1993 22.3416C18.1283 22.2471 18.2136 22.0951 18.2478 22.1091C18.3109 22.1348 19.0536 23.6156 18.9602 23.9596C18.9417 24.1289 18.3051 24.3877 18.3767 24.2563C18.4483 24.1249 18.7084 23.8648 18.6222 23.4107C18.5361 22.9565 18.267 22.4318 18.1993 22.3416Z" fill="#009688"/>
<path d="M18.1993 22.3416C18.1283 22.2471 18.2136 22.0951 18.2478 22.1091C18.3109 22.1348 19.0536 23.6156 18.9602 23.9596C18.9417 24.1289 18.3051 24.3877 18.3767 24.2563C18.4483 24.1249 18.7084 23.8648 18.6222 23.4107C18.5361 22.9565 18.267 22.4318 18.1993 22.3416Z" fill="#333333" fill-opacity="0.35"/>
<path d="M17.0725 26.4623C17.0388 26.4241 16.6932 26.4241 16.6932 26.4241C16.6932 26.4241 16.3957 26.4212 16.3328 26.4173C16.27 26.4134 16.2026 26.4955 16.2742 26.5027C16.3459 26.5099 17.0119 26.622 17.0615 26.5717C17.1111 26.5214 17.1062 26.5004 17.0725 26.4623Z" fill="#333333"/>
<path d="M16.7155 26.495C16.6849 26.5082 16.167 26.5044 16.1997 26.495C16.2324 26.4856 16.3078 26.4001 16.3078 26.3183C16.3078 26.2365 16.2851 25.8621 16.3078 25.8621H16.5397C16.5642 25.8621 16.5397 26.1529 16.5397 26.2489C16.5397 26.3448 16.746 26.4818 16.7155 26.495Z" fill="#333333"/>
<path d="M16.5485 25.8625C16.5485 25.8363 16.4629 25.8625 16.4629 25.8625V26.4998H16.7039C16.761 26.4998 16.5485 26.3495 16.5485 26.2449V25.8625Z" fill="#333333"/>
<path d="M16.5485 25.8625C16.5485 25.8363 16.4629 25.8625 16.4629 25.8625V26.4998H16.7039C16.761 26.4998 16.5485 26.3495 16.5485 26.2449V25.8625Z" fill="#272B6B" fill-opacity="0.05"/>
<path d="M15.9639 25.6417C15.9578 25.5063 16.3729 24.453 16.4392 24.4737C16.5056 24.4944 16.9658 25.4987 16.9391 25.6417C16.9124 25.7847 16.5927 25.8677 16.554 25.8677H16.3491C16.3047 25.8677 15.97 25.777 15.9639 25.6417Z" fill="#009688"/>
<path d="M16.3106 24.6794C16.3653 24.5704 16.4131 24.4744 16.4393 24.4744C16.528 24.583 16.9904 25.4256 16.9306 25.6694C16.906 25.7888 16.5531 25.8699 16.5531 25.8699C16.5022 25.8832 16.4611 25.879 16.34 25.8699C16.2189 25.8608 16.112 25.8078 16.1925 25.7795C16.2975 25.7263 16.34 25.657 16.34 25.657C16.4982 25.4751 16.3545 24.8564 16.3106 24.6794Z" fill="#009688"/>
<path d="M16.3106 24.6794C16.3653 24.5704 16.4131 24.4744 16.4393 24.4744C16.528 24.583 16.9904 25.4256 16.9306 25.6694C16.906 25.7888 16.5531 25.8699 16.5531 25.8699C16.5022 25.8832 16.4611 25.879 16.34 25.8699C16.2189 25.8608 16.112 25.8078 16.1925 25.7795C16.2975 25.7263 16.34 25.657 16.34 25.657C16.4982 25.4751 16.3545 24.8564 16.3106 24.6794Z" fill="#333333" fill-opacity="0.15"/>
<path d="M16.4054 24.6244C16.3558 24.5637 16.4153 24.4662 16.4392 24.4752C16.4832 24.4917 17.0013 25.4415 16.9362 25.6622C16.9232 25.7708 16.4792 25.9368 16.5291 25.8525C16.579 25.7682 16.7605 25.6014 16.7004 25.3101C16.6403 25.0188 16.4526 24.6822 16.4054 24.6244Z" fill="#009688"/>
<path d="M16.4054 24.6244C16.3558 24.5637 16.4153 24.4662 16.4392 24.4752C16.4832 24.4917 17.0013 25.4415 16.9362 25.6622C16.9232 25.7708 16.4792 25.9368 16.5291 25.8525C16.579 25.7682 16.7605 25.6014 16.7004 25.3101C16.6403 25.0188 16.4526 24.6822 16.4054 24.6244Z" fill="#333333" fill-opacity="0.35"/>
<path d="M14.7615 21.3644C14.7952 21.3262 15.1408 21.3262 15.1408 21.3262C15.1408 21.3262 15.4383 21.3233 15.5011 21.3194C15.564 21.3155 15.6314 21.3976 15.5597 21.4048C15.4881 21.412 14.8221 21.5241 14.7725 21.4738C14.7229 21.4235 14.7278 21.4025 14.7615 21.3644Z" fill="#333333"/>
<path d="M15.1185 21.3974C15.1491 21.4106 15.667 21.4068 15.6343 21.3974C15.6016 21.388 15.5262 21.3025 15.5262 21.2207C15.5262 21.1388 15.5489 20.7644 15.5262 20.7644H15.2943C15.2697 20.7644 15.2943 21.0553 15.2943 21.1512C15.2943 21.2472 15.0879 21.3842 15.1185 21.3974Z" fill="#333333"/>
<path d="M15.2845 20.7646C15.2845 20.7384 15.3701 20.7646 15.3701 20.7646V21.4019H15.1291C15.072 21.4019 15.2845 21.2516 15.2845 21.147V20.7646Z" fill="#333333"/>
<path d="M15.2845 20.7646C15.2845 20.7384 15.3701 20.7646 15.3701 20.7646V21.4019H15.1291C15.072 21.4019 15.2845 21.2516 15.2845 21.147V20.7646Z" fill="#272B6B" fill-opacity="0.05"/>
<path d="M15.8705 20.544C15.8766 20.4087 15.4616 19.3553 15.3952 19.376C15.3289 19.3967 14.8686 20.401 14.8954 20.544C14.9221 20.687 15.2417 20.7701 15.2805 20.7701H15.4854C15.5298 20.7701 15.8644 20.6794 15.8705 20.544Z" fill="#009688"/>
<path d="M15.5234 19.5815C15.4687 19.4725 15.4209 19.3765 15.3947 19.3765C15.3059 19.4851 14.8436 20.3277 14.9034 20.5715C14.928 20.6909 15.2809 20.772 15.2809 20.772C15.3318 20.7853 15.3729 20.7811 15.494 20.772C15.6151 20.7629 15.7219 20.7099 15.6415 20.6816C15.5365 20.6284 15.494 20.5591 15.494 20.5591C15.3358 20.3772 15.4795 19.7585 15.5234 19.5815Z" fill="#009688"/>
<path d="M15.5234 19.5815C15.4687 19.4725 15.4209 19.3765 15.3947 19.3765C15.3059 19.4851 14.8436 20.3277 14.9034 20.5715C14.928 20.6909 15.2809 20.772 15.2809 20.772C15.3318 20.7853 15.3729 20.7811 15.494 20.772C15.6151 20.7629 15.7219 20.7099 15.6415 20.6816C15.5365 20.6284 15.494 20.5591 15.494 20.5591C15.3358 20.3772 15.4795 19.7585 15.5234 19.5815Z" fill="#333333" fill-opacity="0.15"/>
<path d="M15.4276 19.5267C15.4772 19.4661 15.4177 19.3686 15.3938 19.3775C15.3498 19.394 14.8317 20.3439 14.8968 20.5645C14.9098 20.6731 15.3538 20.8391 15.3039 20.7548C15.254 20.6705 15.0725 20.5037 15.1326 20.2124C15.1927 19.9211 15.3804 19.5845 15.4276 19.5267Z" fill="#009688"/>
<path d="M15.4276 19.5267C15.4772 19.4661 15.4177 19.3686 15.3938 19.3775C15.3498 19.394 14.8317 20.3439 14.8968 20.5645C14.9098 20.6731 15.3538 20.8391 15.3039 20.7548C15.254 20.6705 15.0725 20.5037 15.1326 20.2124C15.1927 19.9211 15.3804 19.5845 15.4276 19.5267Z" fill="#333333" fill-opacity="0.35"/>
<path d="M18.1891 19.806C18.1848 19.6205 17.6138 19.0855 17.5647 19.0956C17.5155 19.1057 16.1132 20.081 16.1 20.1C16.0867 20.1189 16.8172 20.9082 17.1245 21.3534L18.647 20.3549C18.647 20.3549 18.2576 19.9696 18.1891 19.806Z" fill="#FFFF00"/>
<path d="M16.9157 20.8529C16.9676 20.8888 17.7382 19.9284 17.7174 19.8807C17.6965 19.8329 17.5712 19.8807 17.5639 19.7954C17.51 19.6696 17.589 19.2849 17.4599 19.2494C17.4076 19.235 17.3251 19.2667 17.3251 19.2667C17.3251 19.2667 16.1229 20.0442 16.1141 20.1024C16.1053 20.1606 16.8639 20.8169 16.9157 20.8529Z" fill="#FFFF00"/>
<path d="M16.9157 20.8529C16.9676 20.8888 17.7382 19.9284 17.7174 19.8807C17.6965 19.8329 17.5712 19.8807 17.5639 19.7954C17.51 19.6696 17.589 19.2849 17.4599 19.2494C17.4076 19.235 17.3251 19.2667 17.3251 19.2667C17.3251 19.2667 16.1229 20.0442 16.1141 20.1024C16.1053 20.1606 16.8639 20.8169 16.9157 20.8529Z" fill="#333333" fill-opacity="0.15"/>
<path d="M16.1039 20.0994C16.1039 20.0994 16.9836 21.1345 17.1289 21.3487C17.1407 21.3553 17.1067 22.4284 17.1067 22.4284C17.1067 22.4284 16.9044 22.4103 16.8119 22.4434C16.7194 22.4765 16.2478 22.7594 16.1535 22.7415C16.0592 22.7235 15.3173 21.8955 15.3002 21.8478C15.8581 21.557 15.9331 21.4067 15.9331 21.3553C15.9331 21.304 15.9677 20.6531 15.9331 20.6021C15.8985 20.5511 15.744 20.5303 15.7418 20.4798C15.7396 20.4293 16.1039 20.0994 16.1039 20.0994Z" fill="#333333"/>
<path d="M17.1289 21.3507L18.6484 20.3545L18.6538 21.6748C18.2483 21.8489 17.623 22.0512 17.1054 22.4287L17.1289 21.3507Z" fill="#333333" fill-opacity="0.75"/>
<path d="M17.1289 21.3507L18.6484 20.3545L18.6538 21.6748C18.2483 21.8489 17.623 22.0512 17.1054 22.4287L17.1289 21.3507Z" fill="#333333" fill-opacity="0.2"/>
<path d="M17.4829 19.2629C17.4543 19.2123 17.3717 19.2562 17.3616 19.2261C17.4035 19.1968 17.4847 19.1422 17.5584 19.0963C17.6322 19.0504 17.9249 19.5386 17.9308 19.5921C17.9366 19.6456 17.6901 19.9733 17.6588 19.885C17.4563 19.8508 17.5875 19.3582 17.4829 19.2629Z" fill="#0D47A1"/>
<path d="M17.8691 21.154C17.8905 21.0982 18.1943 21.0205 18.1943 21.0205C18.2349 20.9969 18.3428 21.6023 18.3452 21.7144C18.3476 21.8265 18.0188 21.9497 17.8904 21.9497C17.9174 21.7995 17.8478 21.2099 17.8691 21.154Z" fill="#0D47A1"/>
<path d="M16.292 20.8949C16.3145 20.9092 16.6041 21.127 16.6041 21.1461C16.6041 21.1651 16.6275 21.4901 16.6041 21.4809C16.5806 21.4717 16.2858 21.3189 16.292 21.2898C16.2983 21.2606 16.2696 20.8807 16.292 20.8949Z" fill="#0D47A1"/>
<path d="M16.2693 21.5646C16.3095 21.5595 16.501 21.6671 16.4995 21.6901C16.4979 21.7131 15.6647 22.1878 15.6964 22.1382C15.6964 22.1382 15.4455 21.9538 15.5172 21.8872C15.8757 21.8206 16.2291 21.5697 16.2693 21.5646Z" fill="#0D47A1"/>
<path d="M17.4755 19.251C17.4232 19.2123 17.3503 19.2083 17.3136 19.2655C17.1455 19.6246 17.3888 20.1251 17.4995 20.0918C17.5479 20.1101 17.7114 19.8965 17.731 19.8723C17.7505 19.8482 17.6383 19.889 17.5958 19.8417C17.5053 19.7408 17.5886 19.2986 17.4755 19.251Z" fill="#333333"/>
<path d="M17.6361 21.2368L17.8644 21.1603C17.8644 21.1603 17.9227 21.7572 17.9062 21.8553C17.8896 21.9534 18.1533 21.8942 18.1533 21.9788C18.0241 22.0352 17.6749 22.0338 17.6532 21.9788C17.6386 21.9418 17.6361 21.2368 17.6361 21.2368Z" fill="#333333"/>
<path d="M10.3659 21.6046C10.317 21.5492 9.81514 21.5492 9.81514 21.5492C9.81514 21.5492 9.3832 21.5449 9.29192 21.5393C9.20063 21.5336 9.10278 21.6529 9.20683 21.6633C9.31088 21.6738 10.278 21.8365 10.3499 21.7635C10.4219 21.6904 10.4148 21.66 10.3659 21.6046Z" fill="#333333"/>
<path d="M9.84627 21.6525C9.8019 21.6717 9.0499 21.6662 9.09737 21.6525C9.14484 21.6388 9.25427 21.5147 9.25427 21.3959C9.25427 21.2771 9.22133 20.7334 9.25427 20.7334H9.59096C9.62666 20.7334 9.59096 21.1557 9.59096 21.2951C9.59096 21.4344 9.89064 21.6333 9.84627 21.6525Z" fill="#333333"/>
<path d="M9.6048 20.7339C9.6048 20.6959 9.48047 20.7339 9.48047 20.7339V21.6594H9.8305C9.9134 21.6594 9.6048 21.4411 9.6048 21.2892V20.7339Z" fill="#333333"/>
<path d="M9.6048 20.7339C9.6048 20.6959 9.48047 20.7339 9.48047 20.7339V21.6594H9.8305C9.9134 21.6594 9.6048 21.4411 9.6048 21.2892V20.7339Z" fill="#272B6B" fill-opacity="0.05"/>
<path d="M8.75498 20.4134C8.74612 20.2169 9.34882 18.6874 9.44513 18.7175C9.54144 18.7475 10.2098 20.2058 10.171 20.4134C10.1322 20.6211 9.66804 20.7417 9.61172 20.7417H9.31425C9.24979 20.7417 8.76384 20.61 8.75498 20.4134Z" fill="#009688"/>
<path d="M9.25939 19.0157C9.33887 18.8574 9.40831 18.718 9.44635 18.718C9.57516 18.8758 10.2465 20.0992 10.1597 20.4533C10.1239 20.6267 9.61153 20.7444 9.61153 20.7444C9.53767 20.7638 9.47799 20.7576 9.30214 20.7444C9.12629 20.7312 8.97111 20.6542 9.08797 20.6131C9.24039 20.5358 9.30214 20.4352 9.30214 20.4352C9.5318 20.1711 9.32313 19.2727 9.25939 19.0157Z" fill="#009688"/>
<path d="M9.25939 19.0157C9.33887 18.8574 9.40831 18.718 9.44635 18.718C9.57516 18.8758 10.2465 20.0992 10.1597 20.4533C10.1239 20.6267 9.61153 20.7444 9.61153 20.7444C9.53767 20.7638 9.47799 20.7576 9.30214 20.7444C9.12629 20.7312 8.97111 20.6542 9.08797 20.6131C9.24039 20.5358 9.30214 20.4352 9.30214 20.4352C9.5318 20.1711 9.32313 19.2727 9.25939 19.0157Z" fill="#333333" fill-opacity="0.15"/>
<path d="M9.39694 18.9364C9.32502 18.8484 9.41136 18.7068 9.44607 18.7198C9.51 18.7438 10.2622 20.123 10.1677 20.4434C10.1489 20.6011 9.50409 20.8421 9.57659 20.7197C9.64909 20.5973 9.91255 20.3551 9.8253 19.9321C9.73804 19.5091 9.46549 19.0204 9.39694 18.9364Z" fill="#009688"/>
<path d="M9.39694 18.9364C9.32502 18.8484 9.41136 18.7068 9.44607 18.7198C9.51 18.7438 10.2622 20.123 10.1677 20.4434C10.1489 20.6011 9.50409 20.8421 9.57659 20.7197C9.64909 20.5973 9.91255 20.3551 9.8253 19.9321C9.73804 19.5091 9.46549 19.0204 9.39694 18.9364Z" fill="#333333" fill-opacity="0.35"/>
<path d="M10.3126 20.7091C10.3197 20.4084 11.2453 19.541 11.3251 19.5574C11.4048 19.5737 13.6784 21.155 13.6999 21.1857C13.7213 21.2165 12.537 22.4962 12.0388 23.218L9.57031 21.5991C9.57031 21.5991 10.2016 20.9745 10.3126 20.7091Z" fill="#008000"/>
<path d="M12.378 22.4065C12.2939 22.4647 11.0445 20.9076 11.0783 20.8302C11.1121 20.7528 11.3153 20.8302 11.3272 20.6919C11.4145 20.488 11.2864 19.8643 11.4958 19.8066C11.5805 19.7833 11.7143 19.8347 11.7143 19.8347C11.7143 19.8347 13.6634 21.0953 13.6777 21.1897C13.6921 21.284 12.4621 22.3482 12.378 22.4065Z" fill="#008000"/>
<path d="M12.378 22.4065C12.2939 22.4647 11.0445 20.9076 11.0783 20.8302C11.1121 20.7528 11.3153 20.8302 11.3272 20.6919C11.4145 20.488 11.2864 19.8643 11.4958 19.8066C11.5805 19.7833 11.7143 19.8347 11.7143 19.8347C11.7143 19.8347 13.6634 21.0953 13.6777 21.1897C13.6921 21.284 12.4621 22.3482 12.378 22.4065Z" fill="#333333" fill-opacity="0.15"/>
<path d="M13.6937 21.1848C13.6937 21.1848 12.2674 22.8631 12.0319 23.2104C12.0127 23.2212 12.0678 24.9609 12.0678 24.9609C12.0678 24.9609 12.3957 24.9316 12.5457 24.9852C12.6958 25.0389 13.4603 25.4976 13.6132 25.4685C13.7661 25.4394 14.969 24.0969 14.9967 24.0195C14.0921 23.5481 13.9706 23.3045 13.9706 23.2212C13.9706 23.1379 13.9146 22.0825 13.9706 21.9999C14.0266 21.9172 14.2771 21.8834 14.2807 21.8015C14.2843 21.7197 13.6937 21.1848 13.6937 21.1848Z" fill="#333333"/>
<path d="M12.0324 23.2136L9.56886 21.5984L9.56006 23.7391C10.2174 24.0213 11.2314 24.3494 12.0705 24.9613L12.0324 23.2136Z" fill="#333333" fill-opacity="0.75"/>
<path d="M12.0324 23.2136L9.56886 21.5984L9.56006 23.7391C10.2174 24.0213 11.2314 24.3494 12.0705 24.9613L12.0324 23.2136Z" fill="#333333" fill-opacity="0.2"/>
<path d="M11.4611 19.8285C11.5074 19.7464 11.6413 19.8176 11.6577 19.7689C11.5898 19.7214 11.4581 19.6328 11.3386 19.5584C11.2191 19.484 10.7444 20.2755 10.7349 20.3622C10.7254 20.449 11.1251 20.9802 11.1759 20.8372C11.5041 20.7816 11.2915 19.9831 11.4611 19.8285Z" fill="#0D47A1"/>
<path d="M10.8349 22.8946C10.8002 22.8041 10.3076 22.6782 10.3076 22.6782C10.2418 22.6399 10.0669 23.6215 10.063 23.8032C10.0591 23.9849 10.5922 24.1847 10.8004 24.1847C10.7566 23.9412 10.8695 22.9852 10.8349 22.8946Z" fill="#0D47A1"/>
<path d="M13.3918 22.4746C13.3555 22.4977 12.8859 22.8509 12.8859 22.8818C12.8859 22.9126 12.848 23.4394 12.8859 23.4246C12.9239 23.4097 13.4019 23.162 13.3918 23.1147C13.3817 23.0675 13.4282 22.4514 13.3918 22.4746Z" fill="#0D47A1"/>
<path d="M13.4287 23.5603C13.3635 23.552 13.0531 23.7266 13.0556 23.7638C13.058 23.8011 14.4089 24.5706 14.3575 24.4902C14.3575 24.4902 14.7644 24.1913 14.6482 24.0834C14.0669 23.9754 13.494 23.5686 13.4287 23.5603Z" fill="#0D47A1"/>
<path d="M11.4706 19.8087C11.5553 19.7459 11.6735 19.7395 11.733 19.8323C12.0056 20.4145 11.6111 21.2259 11.4316 21.1719C11.3531 21.2016 11.0881 20.8552 11.0564 20.8161C11.0246 20.777 11.2066 20.8431 11.2754 20.7664C11.4222 20.6029 11.2871 19.8859 11.4706 19.8087Z" fill="#333333"/>
<path d="M11.2101 23.0284L10.84 22.9043C10.84 22.9043 10.7455 23.8721 10.7723 24.0312C10.7991 24.1903 10.3716 24.0942 10.3716 24.2313C10.5812 24.3227 11.1473 24.3206 11.1825 24.2313C11.2061 24.1714 11.2101 23.0284 11.2101 23.0284Z" fill="#333333"/>
<path d="M13.0626 25.6991C13.033 25.6656 12.7296 25.6656 12.7296 25.6656C12.7296 25.6656 12.4684 25.663 12.4132 25.6596C12.358 25.6562 12.2988 25.7283 12.3617 25.7346C12.4246 25.741 13.0094 25.8393 13.0529 25.7952C13.0964 25.751 13.0922 25.7326 13.0626 25.6991Z" fill="#333333"/>
<path d="M12.7012 25.7227C12.6744 25.7274 12.2197 25.726 12.2484 25.7227C12.2771 25.7193 12.3432 25.6889 12.3432 25.6597C12.3432 25.6305 12.3233 25.4971 12.3432 25.4971H12.5468C12.5684 25.4971 12.5468 25.6007 12.5468 25.6349C12.5468 25.6691 12.728 25.718 12.7012 25.7227Z" fill="#333333"/>
<path d="M12.5561 25.4976C12.5561 25.4882 12.481 25.4976 12.481 25.4976V25.7247H12.6926C12.7427 25.7247 12.5561 25.6711 12.5561 25.6338V25.4976Z" fill="#333333"/>
<path d="M12.5561 25.4976C12.5561 25.4882 12.481 25.4976 12.481 25.4976V25.7247H12.6926C12.7427 25.7247 12.5561 25.6711 12.5561 25.6338V25.4976Z" fill="#272B6B" fill-opacity="0.05"/>
<path d="M11.8267 25.3453C11.8191 25.2469 12.3404 24.4812 12.4237 24.4963C12.507 24.5114 13.085 25.2414 13.0515 25.3453C13.0179 25.4493 12.6165 25.5097 12.5677 25.5097H12.3105C12.2547 25.5097 11.8344 25.4437 11.8267 25.3453Z" fill="#009688"/>
<path d="M12.2635 24.6456C12.3322 24.5664 12.3923 24.4966 12.4252 24.4966C12.5366 24.5756 13.1172 25.188 13.0421 25.3653C13.0112 25.4521 12.568 25.511 12.568 25.511C12.5041 25.5207 12.4525 25.5176 12.3004 25.511C12.1483 25.5044 12.0141 25.4659 12.1152 25.4453C12.247 25.4066 12.3004 25.3562 12.3004 25.3562C12.4991 25.224 12.3186 24.7743 12.2635 24.6456Z" fill="#009688"/>
<path d="M12.2635 24.6456C12.3322 24.5664 12.3923 24.4966 12.4252 24.4966C12.5366 24.5756 13.1172 25.188 13.0421 25.3653C13.0112 25.4521 12.568 25.511 12.568 25.511C12.5041 25.5207 12.4525 25.5176 12.3004 25.511C12.1483 25.5044 12.0141 25.4659 12.1152 25.4453C12.247 25.4066 12.3004 25.3562 12.3004 25.3562C12.4991 25.224 12.3186 24.7743 12.2635 24.6456Z" fill="#333333" fill-opacity="0.15"/>
<path d="M12.3829 24.6062C12.3207 24.5621 12.3954 24.4912 12.4254 24.4977C12.4807 24.5097 13.1313 25.2002 13.0495 25.3606C13.0333 25.4395 12.4756 25.5602 12.5383 25.4989C12.601 25.4376 12.8289 25.3164 12.7534 25.1046C12.6779 24.8929 12.4422 24.6482 12.3829 24.6062Z" fill="#009688"/>
<path d="M12.3829 24.6062C12.3207 24.5621 12.3954 24.4912 12.4254 24.4977C12.4807 24.5097 13.1313 25.2002 13.0495 25.3606C13.0333 25.4395 12.4756 25.5602 12.5383 25.4989C12.601 25.4376 12.8289 25.3164 12.7534 25.1046C12.6779 24.8929 12.4422 24.6482 12.3829 24.6062Z" fill="#333333" fill-opacity="0.35"/>
<path d="M15.2726 23.497C15.243 23.4634 14.9395 23.4634 14.9395 23.4634C14.9395 23.4634 14.6783 23.4609 14.6231 23.4575C14.5679 23.4541 14.5088 23.5262 14.5717 23.5325C14.6346 23.5388 15.2194 23.6372 15.2629 23.593C15.3064 23.5489 15.3021 23.5305 15.2726 23.497Z" fill="#333333"/>
<path d="M14.9112 23.521C14.8843 23.5257 14.4296 23.5244 14.4583 23.521C14.487 23.5177 14.5532 23.4872 14.5532 23.458C14.5532 23.4289 14.5333 23.2954 14.5532 23.2954H14.7568C14.7784 23.2954 14.7568 23.3991 14.7568 23.4333C14.7568 23.4675 14.938 23.5163 14.9112 23.521Z" fill="#333333"/>
<path d="M14.7656 23.2954C14.7656 23.2861 14.6904 23.2954 14.6904 23.2954V23.5226H14.9021C14.9522 23.5226 14.7656 23.469 14.7656 23.4317V23.2954Z" fill="#333333"/>
<path d="M14.7656 23.2954C14.7656 23.2861 14.6904 23.2954 14.6904 23.2954V23.5226H14.9021C14.9522 23.5226 14.7656 23.469 14.7656 23.4317V23.2954Z" fill="#272B6B" fill-opacity="0.05"/>
<path d="M14.0367 23.1432C14.029 23.0448 14.5503 22.2791 14.6336 22.2942C14.7169 22.3092 15.295 23.0392 15.2614 23.1432C15.2279 23.2471 14.8264 23.3075 14.7777 23.3075H14.5204C14.4647 23.3075 14.0444 23.2416 14.0367 23.1432Z" fill="#009688"/>
<path d="M14.4729 22.4437C14.5417 22.3645 14.6017 22.2947 14.6346 22.2947C14.746 22.3737 15.3267 22.9861 15.2516 23.1634C15.2207 23.2502 14.7775 23.3091 14.7775 23.3091C14.7136 23.3188 14.662 23.3157 14.5099 23.3091C14.3578 23.3025 14.2236 23.264 14.3247 23.2434C14.4565 23.2047 14.5099 23.1543 14.5099 23.1543C14.7085 23.0221 14.5281 22.5724 14.4729 22.4437Z" fill="#009688"/>
<path d="M14.4729 22.4437C14.5417 22.3645 14.6017 22.2947 14.6346 22.2947C14.746 22.3737 15.3267 22.9861 15.2516 23.1634C15.2207 23.2502 14.7775 23.3091 14.7775 23.3091C14.7136 23.3188 14.662 23.3157 14.5099 23.3091C14.3578 23.3025 14.2236 23.264 14.3247 23.2434C14.4565 23.2047 14.5099 23.1543 14.5099 23.1543C14.7085 23.0221 14.5281 22.5724 14.4729 22.4437Z" fill="#333333" fill-opacity="0.15"/>
<path d="M14.5924 22.404C14.5302 22.3599 14.6049 22.2891 14.6349 22.2956C14.6902 22.3076 15.3408 22.998 15.259 23.1584C15.2428 23.2374 14.6851 23.358 14.7478 23.2968C14.8105 23.2355 15.0384 23.1142 14.9629 22.9025C14.8874 22.6907 14.6517 22.446 14.5924 22.404Z" fill="#009688"/>
<path d="M14.5924 22.404C14.5302 22.3599 14.6049 22.2891 14.6349 22.2956C14.6902 22.3076 15.3408 22.998 15.259 23.1584C15.2428 23.2374 14.6851 23.358 14.7478 23.2968C14.8105 23.2355 15.0384 23.1142 14.9629 22.9025C14.8874 22.6907 14.6517 22.446 14.5924 22.404Z" fill="#333333" fill-opacity="0.35"/>
<path d="M24.1399 21.7672C24.1056 21.7283 23.754 21.7283 23.754 21.7283C23.754 21.7283 23.4514 21.7254 23.3874 21.7214C23.3235 21.7175 23.2549 21.801 23.3278 21.8083C23.4007 21.8157 24.0783 21.9297 24.1287 21.8785C24.1791 21.8273 24.1742 21.806 24.1399 21.7672Z" fill="#333333"/>
<path d="M23.7762 21.8007C23.7451 21.8141 23.2183 21.8103 23.2515 21.8007C23.2848 21.7911 23.3614 21.7041 23.3614 21.6209C23.3614 21.5377 23.3384 21.1567 23.3614 21.1567H23.5973C23.6223 21.1567 23.5973 21.4526 23.5973 21.5503C23.5973 21.6479 23.8073 21.7873 23.7762 21.8007Z" fill="#333333"/>
<path d="M23.6066 21.1568C23.6066 21.1302 23.5195 21.1568 23.5195 21.1568V21.8052H23.7648C23.8229 21.8052 23.6066 21.6523 23.6066 21.5459V21.1568Z" fill="#333333"/>
<path d="M23.6066 21.1568C23.6066 21.1302 23.5195 21.1568 23.5195 21.1568V21.8052H23.7648C23.8229 21.8052 23.6066 21.6523 23.6066 21.5459V21.1568Z" fill="#272B6B" fill-opacity="0.05"/>
<path d="M22.7623 20.799C22.7534 20.5848 23.3574 18.9179 23.4539 18.9507C23.5505 18.9834 24.2202 20.5727 24.1814 20.799C24.1425 21.0253 23.6773 21.1568 23.6209 21.1568H23.3228C23.2582 21.1568 22.7712 21.0132 22.7623 20.799Z" fill="#009688"/>
<path d="M23.2686 19.2759C23.3483 19.1033 23.4179 18.9514 23.456 18.9514C23.5851 19.1234 24.2579 20.4567 24.1709 20.8426C24.1351 21.0316 23.6215 21.1598 23.6215 21.1598C23.5475 21.181 23.4877 21.1742 23.3115 21.1598C23.1353 21.1454 22.9797 21.0616 23.0968 21.0167C23.2496 20.9326 23.3115 20.8229 23.3115 20.8229C23.5416 20.5351 23.3325 19.556 23.2686 19.2759Z" fill="#009688"/>
<path d="M23.2686 19.2759C23.3483 19.1033 23.4179 18.9514 23.456 18.9514C23.5851 19.1234 24.2579 20.4567 24.1709 20.8426C24.1351 21.0316 23.6215 21.1598 23.6215 21.1598C23.5475 21.181 23.4877 21.1742 23.3115 21.1598C23.1353 21.1454 22.9797 21.0616 23.0968 21.0167C23.2496 20.9326 23.3115 20.8229 23.3115 20.8229C23.5416 20.5351 23.3325 19.556 23.2686 19.2759Z" fill="#333333" fill-opacity="0.15"/>
<path d="M23.4068 19.1891C23.3347 19.0932 23.4212 18.9389 23.456 18.9531C23.5201 18.9792 24.2739 20.4823 24.1791 20.8315C24.1603 21.0034 23.5141 21.266 23.5868 21.1327C23.6595 20.9993 23.9235 20.7353 23.836 20.2743C23.7486 19.8133 23.4755 19.2806 23.4068 19.1891Z" fill="#009688"/>
<path d="M23.4068 19.1891C23.3347 19.0932 23.4212 18.9389 23.456 18.9531C23.5201 18.9792 24.2739 20.4823 24.1791 20.8315C24.1603 21.0034 23.5141 21.266 23.5868 21.1327C23.6595 20.9993 23.9235 20.7353 23.836 20.2743C23.7486 19.8133 23.4755 19.2806 23.4068 19.1891Z" fill="#333333" fill-opacity="0.35"/>
<path d="M24.2329 21.2227C24.2273 20.9846 23.4941 20.2975 23.431 20.3105C23.3678 20.3234 21.5671 21.5758 21.5501 21.6002C21.5331 21.6246 22.4711 22.6382 22.8657 23.2098L24.8208 21.9276C24.8208 21.9276 24.3208 21.4329 24.2329 21.2227Z" fill="#FF0000"/>
<path d="M22.597 22.5674C22.6636 22.6135 23.6532 21.3803 23.6264 21.3189C23.5997 21.2576 23.4387 21.3189 23.4293 21.2094C23.3601 21.0479 23.4616 20.5539 23.2958 20.5082C23.2287 20.4897 23.1227 20.5304 23.1227 20.5304C23.1227 20.5304 21.5789 21.5289 21.5676 21.6037C21.5563 21.6784 22.5304 22.5212 22.597 22.5674Z" fill="#FF0000"/>
<path d="M22.597 22.5674C22.6636 22.6135 23.6532 21.3803 23.6264 21.3189C23.5997 21.2576 23.4387 21.3189 23.4293 21.2094C23.3601 21.0479 23.4616 20.5539 23.2958 20.5082C23.2287 20.4897 23.1227 20.5304 23.1227 20.5304C23.1227 20.5304 21.5789 21.5289 21.5676 21.6037C21.5563 21.6784 22.5304 22.5212 22.597 22.5674Z" fill="#333333" fill-opacity="0.15"/>
<path d="M21.5551 21.5996C21.5551 21.5996 22.6848 22.9289 22.8713 23.204C22.8865 23.2124 22.8429 24.5904 22.8429 24.5904C22.8429 24.5904 22.5831 24.5671 22.4643 24.6097C22.3455 24.6522 21.7399 25.0155 21.6188 24.9924C21.4977 24.9694 20.545 23.9061 20.5231 23.8448C21.2395 23.4714 21.3358 23.2784 21.3358 23.2124C21.3358 23.1465 21.3802 22.3106 21.3358 22.2452C21.2914 22.1797 21.093 22.1529 21.0902 22.0881C21.0873 22.0232 21.5551 21.5996 21.5551 21.5996Z" fill="#333333"/>
<path d="M22.8704 23.2068L24.8216 21.9275L24.8286 23.623C24.3079 23.8465 23.5049 24.1064 22.8403 24.591L22.8704 23.2068Z" fill="#333333" fill-opacity="0.75"/>
<path d="M22.8704 23.2068L24.8216 21.9275L24.8286 23.623C24.3079 23.8465 23.5049 24.1064 22.8403 24.591L22.8704 23.2068Z" fill="#333333" fill-opacity="0.2"/>
<path d="M23.3243 20.5257C23.2876 20.4607 23.1816 20.517 23.1686 20.4785C23.2223 20.4408 23.3267 20.3707 23.4213 20.3118C23.516 20.2528 23.892 20.8797 23.8995 20.9484C23.907 21.0171 23.5904 21.4379 23.5502 21.3246C23.2902 21.2806 23.4586 20.6481 23.3243 20.5257Z" fill="#0D47A1"/>
<path d="M23.8203 22.9542C23.8477 22.8825 24.2379 22.7828 24.2379 22.7828C24.29 22.7524 24.4285 23.5298 24.4316 23.6738C24.4347 23.8177 24.0125 23.9759 23.8476 23.9759C23.8823 23.783 23.7929 23.0259 23.8203 22.9542Z" fill="#0D47A1"/>
<path d="M21.7951 22.6215C21.8239 22.6398 22.1958 22.9195 22.1958 22.944C22.1958 22.9684 22.2259 23.3857 22.1958 23.3739C22.1657 23.3621 21.7871 23.1659 21.7951 23.1285C21.8031 23.091 21.7663 22.6031 21.7951 22.6215Z" fill="#0D47A1"/>
<path d="M21.7659 23.4814C21.8175 23.4748 22.0634 23.6131 22.0614 23.6426C22.0595 23.6721 20.9895 24.2816 21.0302 24.2179C21.0302 24.2179 20.708 23.9812 20.8001 23.8957C21.2604 23.8102 21.7142 23.4879 21.7659 23.4814Z" fill="#0D47A1"/>
<path d="M23.3161 20.5099C23.2489 20.4602 23.1553 20.4551 23.1082 20.5286C22.8923 20.9897 23.2048 21.6324 23.347 21.5896C23.4091 21.6132 23.619 21.3388 23.6442 21.3078C23.6693 21.2768 23.5252 21.3292 23.4706 21.2684C23.3544 21.1389 23.4614 20.5711 23.3161 20.5099Z" fill="#333333"/>
<path d="M23.5224 23.06L23.8155 22.9617C23.8155 22.9617 23.8904 23.7282 23.8691 23.8542C23.8479 23.9802 24.1865 23.9042 24.1865 24.0128C24.0205 24.0852 23.5722 24.0834 23.5443 24.0128C23.5255 23.9653 23.5224 23.06 23.5224 23.06Z" fill="#333333"/>
<path d="M21.4396 25.0723C21.4643 25.0442 21.7181 25.0442 21.7181 25.0442C21.7181 25.0442 21.9366 25.0421 21.9828 25.0393C22.029 25.0364 22.0784 25.0967 22.0258 25.102C21.9732 25.1073 21.4841 25.1896 21.4476 25.1526C21.4112 25.1157 21.4148 25.1003 21.4396 25.0723Z" fill="#333333"/>
<path d="M21.7412 25.092C21.7637 25.096 22.144 25.0948 22.12 25.092C22.096 25.0892 22.0406 25.0637 22.0406 25.0393C22.0406 25.015 22.0573 24.9033 22.0406 24.9033H21.8704C21.8523 24.9033 21.8704 24.99 21.8704 25.0186C21.8704 25.0473 21.7188 25.0881 21.7412 25.092Z" fill="#333333"/>
<path d="M21.8628 24.9036C21.8628 24.8958 21.9258 24.9036 21.9258 24.9036V25.0939H21.7485C21.7065 25.0939 21.8628 25.049 21.8628 25.0178V24.9036Z" fill="#333333"/>
<path d="M21.8628 24.9036C21.8628 24.8958 21.9258 24.9036 21.9258 24.9036V25.0939H21.7485C21.7065 25.0939 21.8628 25.049 21.8628 25.0178V24.9036Z" fill="#272B6B" fill-opacity="0.05"/>
<path d="M22.4721 24.7765C22.4785 24.6942 22.0425 24.0537 21.9728 24.0663C21.9031 24.0789 21.4196 24.6896 21.4477 24.7765C21.4757 24.8635 21.8115 24.914 21.8523 24.914H22.0675C22.1141 24.914 22.4657 24.8588 22.4721 24.7765Z" fill="#009688"/>
<path d="M22.1069 24.1911C22.0494 24.1248 21.9991 24.0664 21.9716 24.0664C21.8784 24.1325 21.3927 24.6448 21.4555 24.7931C21.4814 24.8657 21.8521 24.915 21.8521 24.915C21.9055 24.9231 21.9487 24.9205 22.0759 24.915C22.2032 24.9094 22.3154 24.8772 22.2309 24.86C22.1206 24.8276 22.0759 24.7855 22.0759 24.7855C21.9098 24.6749 22.0607 24.2987 22.1069 24.1911Z" fill="#009688"/>
<path d="M22.1069 24.1911C22.0494 24.1248 21.9991 24.0664 21.9716 24.0664C21.8784 24.1325 21.3927 24.6448 21.4555 24.7931C21.4814 24.8657 21.8521 24.915 21.8521 24.915C21.9055 24.9231 21.9487 24.9205 22.0759 24.915C22.2032 24.9094 22.3154 24.8772 22.2309 24.86C22.1206 24.8276 22.0759 24.7855 22.0759 24.7855C21.9098 24.6749 22.0607 24.2987 22.1069 24.1911Z" fill="#333333" fill-opacity="0.15"/>
<path d="M22.0072 24.158C22.0593 24.1211 21.9968 24.0618 21.9717 24.0672C21.9254 24.0773 21.3812 24.6548 21.4496 24.789C21.4632 24.855 21.9297 24.956 21.8773 24.9047C21.8248 24.8535 21.6342 24.752 21.6973 24.5749C21.7605 24.3978 21.9576 24.1931 22.0072 24.158Z" fill="#009688"/>
<path d="M22.0072 24.158C22.0593 24.1211 21.9968 24.0618 21.9717 24.0672C21.9254 24.0773 21.3812 24.6548 21.4496 24.789C21.4632 24.855 21.9297 24.956 21.8773 24.9047C21.8248 24.8535 21.6342 24.752 21.6973 24.5749C21.7605 24.3978 21.9576 24.1931 22.0072 24.158Z" fill="#333333" fill-opacity="0.35"/>
<path d="M20.3111 23.4202C20.3359 23.3921 20.5897 23.3921 20.5897 23.3921C20.5897 23.3921 20.8082 23.39 20.8544 23.3872C20.9005 23.3843 20.95 23.4446 20.8974 23.4499C20.8448 23.4552 20.3556 23.5375 20.3192 23.5005C20.2828 23.4636 20.2864 23.4482 20.3111 23.4202Z" fill="#333333"/>
<path d="M20.6133 23.4399C20.6357 23.4439 21.0161 23.4427 20.9921 23.4399C20.9681 23.4371 20.9127 23.4116 20.9127 23.3872C20.9127 23.3629 20.9294 23.2512 20.9127 23.2512H20.7424C20.7244 23.2512 20.7424 23.3379 20.7424 23.3665C20.7424 23.3952 20.5908 23.436 20.6133 23.4399Z" fill="#333333"/>
<path d="M20.7349 23.2513C20.7349 23.2435 20.7979 23.2513 20.7979 23.2513V23.4416H20.6206C20.5786 23.4416 20.7349 23.3967 20.7349 23.3654V23.2513Z" fill="#333333"/>
<path d="M20.7349 23.2513C20.7349 23.2435 20.7979 23.2513 20.7979 23.2513V23.4416H20.6206C20.5786 23.4416 20.7349 23.3967 20.7349 23.3654V23.2513Z" fill="#272B6B" fill-opacity="0.05"/>
<path d="M21.3447 23.1242C21.3511 23.0419 20.915 22.4014 20.8453 22.414C20.7757 22.4266 20.2921 23.0372 20.3202 23.1242C20.3483 23.2111 20.6841 23.2616 20.7248 23.2616H20.94C20.9867 23.2616 21.3382 23.2065 21.3447 23.1242Z" fill="#009688"/>
<path d="M20.9799 22.5392C20.9224 22.4729 20.8722 22.4146 20.8446 22.4146C20.7515 22.4806 20.2658 22.9929 20.3286 23.1412C20.3544 23.2138 20.7251 23.2631 20.7251 23.2631C20.7786 23.2712 20.8218 23.2686 20.949 23.2631C21.0762 23.2576 21.1885 23.2253 21.1039 23.2081C20.9936 23.1758 20.949 23.1336 20.949 23.1336C20.7828 23.023 20.9338 22.6468 20.9799 22.5392Z" fill="#009688"/>
<path d="M20.9799 22.5392C20.9224 22.4729 20.8722 22.4146 20.8446 22.4146C20.7515 22.4806 20.2658 22.9929 20.3286 23.1412C20.3544 23.2138 20.7251 23.2631 20.7251 23.2631C20.7786 23.2712 20.8218 23.2686 20.949 23.2631C21.0762 23.2576 21.1885 23.2253 21.1039 23.2081C20.9936 23.1758 20.949 23.1336 20.949 23.1336C20.7828 23.023 20.9338 22.6468 20.9799 22.5392Z" fill="#333333" fill-opacity="0.15"/>
<path d="M20.8803 22.5056C20.9323 22.4687 20.8698 22.4095 20.8447 22.4149C20.7985 22.4249 20.2543 23.0025 20.3227 23.1367C20.3363 23.2027 20.8028 23.3036 20.7503 23.2524C20.6979 23.2011 20.5072 23.0997 20.5704 22.9226C20.6335 22.7454 20.8307 22.5408 20.8803 22.5056Z" fill="#009688"/>
<path d="M20.8803 22.5056C20.9323 22.4687 20.8698 22.4095 20.8447 22.4149C20.7985 22.4249 20.2543 23.0025 20.3227 23.1367C20.3363 23.2027 20.8028 23.3036 20.7503 23.2524C20.6979 23.2011 20.5072 23.0997 20.5704 22.9226C20.6335 22.7454 20.8307 22.5408 20.8803 22.5056Z" fill="#333333" fill-opacity="0.35"/>
<path d="M16.6214 5.03287C23.1333 5.03287 28.4123 10.3118 28.4123 16.8237H23.4209V9.60484L20.6451 11.7517V16.8237H19.5456V12.5985L16.7891 14.6861V16.8237H15.6718V14.6861L12.8944 12.8442V16.8237H11.8139V12.8442L9.03801 14.6861V16.8237H4.83057C4.83057 10.3118 10.1095 5.03287 16.6214 5.03287Z" fill="#F9FCFF"/>
<path d="M12.3517 11.5318L9.00784 13.9611L9.00781 12.8177L12.3517 10.342L16.2463 12.8177L23.4079 7.5122V8.65346L16.2463 13.9858L12.3517 11.5318Z" fill="#0D47A1"/>
<path d="M27.4636 16.8237C27.4636 10.6509 22.5932 5.64691 16.5853 5.64691C10.5774 5.64691 5.70703 10.6509 5.70703 16.8237" stroke="#F9FCFF" stroke-width="1.3508"/>
</svg>
