<svg width="53" height="52" viewBox="0 0 53 52" fill="none" xmlns="http://www.w3.org/2000/svg">
<rect x="0.5" width="52" height="52" rx="6" fill="url(#paint0_linear_5445_177)"/>
<path d="M16.5 28.6V17C16.5 16.7348 16.6054 16.4804 16.7929 16.2929C16.9804 16.1054 17.2348 16 17.5 16C17.7652 16 18.0196 16.1054 18.2071 16.2929C18.3946 16.4804 18.5 16.7348 18.5 17V28.6C18.5 29.736 18.5 30.529 18.55 31.145C18.6 31.751 18.693 32.099 18.827 32.362L18.942 32.568C19.231 33.038 19.644 33.421 20.138 33.673L20.241 33.722C20.492 33.83 20.825 33.906 21.354 33.949C21.971 34 22.764 34 23.9 34H35.5L35.602 34.005C35.8487 34.0298 36.0774 34.1453 36.2437 34.3291C36.41 34.513 36.5021 34.7521 36.5021 35C36.5021 35.2479 36.41 35.487 36.2437 35.6709C36.0774 35.8547 35.8487 35.9702 35.602 35.995L35.5 36H23.9C22.797 36 21.909 36.001 21.191 35.942C20.554 35.89 19.983 35.788 19.454 35.561L19.23 35.455C18.3493 35.0065 17.6214 34.307 17.138 33.445L17.045 33.27C16.743 32.677 16.617 32.037 16.558 31.309C16.499 30.59 16.5 29.703 16.5 28.599M26.5 29.499L26.602 29.504C26.8487 29.5288 27.0774 29.6443 27.2437 29.8281C27.41 30.012 27.5021 30.2511 27.5021 30.499C27.5021 30.7469 27.41 30.986 27.2437 31.1699C27.0774 31.3537 26.8487 31.4692 26.602 31.494L26.5 31.5H21.5C21.2348 31.5 20.9804 31.3946 20.7929 31.2071C20.6054 31.0196 20.5 30.7652 20.5 30.5C20.5 30.2348 20.6054 29.9804 20.7929 29.7929C20.9804 29.6054 21.2348 29.5 21.5 29.5L26.5 29.499ZM31.5 24.999L31.602 25.004C31.8487 25.0288 32.0774 25.1443 32.2437 25.3281C32.41 25.512 32.5021 25.7511 32.5021 25.999C32.5021 26.2469 32.41 26.486 32.2437 26.6699C32.0774 26.8537 31.8487 26.9692 31.602 26.994L31.5 27H21.5C21.2348 27 20.9804 26.8946 20.7929 26.7071C20.6054 26.5196 20.5 26.2652 20.5 26C20.5 25.7348 20.6054 25.4804 20.7929 25.2929C20.9804 25.1054 21.2348 25 21.5 25L31.5 24.999ZM28.5 20.499L28.602 20.504C28.8487 20.5288 29.0774 20.6443 29.2437 20.8281C29.41 21.012 29.5021 21.2511 29.5021 21.499C29.5021 21.7469 29.41 21.986 29.2437 22.1699C29.0774 22.3537 28.8487 22.4692 28.602 22.494L28.5 22.5H21.5C21.2348 22.5 20.9804 22.3946 20.7929 22.2071C20.6054 22.0196 20.5 21.7652 20.5 21.5C20.5 21.2348 20.6054 20.9804 20.7929 20.7929C20.9804 20.6054 21.2348 20.5 21.5 20.5L28.5 20.499Z" fill="#F5F5F5"/>
<defs>
<linearGradient id="paint0_linear_5445_177" x1="0.5" y1="26" x2="52.5" y2="26" gradientUnits="userSpaceOnUse">
<stop stop-color="#35D29B"/>
<stop offset="1" stop-color="#5FA6F8"/>
</linearGradient>
</defs>
</svg>
