<svg width="36" height="36" viewBox="0 0 36 36" fill="none" xmlns="http://www.w3.org/2000/svg">
<rect width="36" height="36" rx="4.15385" fill="#F5F5F5" fill-opacity="0.05"/>
<g clip-path="url(#clip0_5257_54046)">
<path d="M18.0001 9.69238C15.7456 9.69238 15.4621 9.70277 14.5763 9.74223C13.6905 9.78377 13.0871 9.92292 12.5585 10.1285C12.0038 10.3366 11.5015 10.6638 11.087 11.087C10.6638 11.5015 10.3366 12.0038 10.1285 12.5585C9.92292 13.0861 9.78273 13.6905 9.74223 14.5732C9.70277 15.461 9.69238 15.7435 9.69238 18.0011C9.69238 20.2567 9.70277 20.5391 9.74223 21.4249C9.78377 22.3097 9.92292 22.913 10.1285 23.4416C10.3414 23.9878 10.6249 24.451 11.087 24.9131C11.5481 25.3752 12.0113 25.6598 12.5575 25.8716C13.0871 26.0772 13.6894 26.2174 14.5742 26.2579C15.461 26.2974 15.7435 26.3078 18.0001 26.3078C20.2567 26.3078 20.5381 26.2974 21.4249 26.2579C22.3087 26.2164 22.9141 26.0772 23.4427 25.8716C23.997 25.6634 24.4989 25.3363 24.9131 24.9131C25.3752 24.451 25.6587 23.9878 25.8716 23.4416C26.0762 22.913 26.2164 22.3097 26.2579 21.4249C26.2974 20.5391 26.3078 20.2567 26.3078 18.0001C26.3078 15.7435 26.2974 15.461 26.2579 14.5742C26.2164 13.6905 26.0762 13.0861 25.8716 12.5585C25.6636 12.0038 25.3364 11.5015 24.9131 11.087C24.4986 10.6638 23.9963 10.3366 23.4416 10.1285C22.912 9.92292 22.3076 9.78273 21.4239 9.74223C20.537 9.70277 20.2556 9.69238 17.998 9.69238H18.0001ZM17.2555 11.1898H18.0011C20.2193 11.1898 20.482 11.1971 21.3574 11.2376C22.1674 11.274 22.6077 11.41 22.9006 11.5232C23.2879 11.6738 23.5652 11.8545 23.856 12.1452C24.1467 12.436 24.3264 12.7122 24.477 13.1006C24.5912 13.3924 24.7262 13.8327 24.7625 14.6427C24.803 15.5182 24.8113 15.7809 24.8113 17.998C24.8113 20.2151 24.803 20.4789 24.7625 21.3543C24.7262 22.1643 24.5902 22.6036 24.477 22.8964C24.3428 23.2567 24.1304 23.5826 23.8549 23.8508C23.5642 24.1415 23.2879 24.3212 22.8995 24.4718C22.6088 24.586 22.1685 24.721 21.3574 24.7584C20.482 24.7978 20.2193 24.8072 18.0011 24.8072C15.783 24.8072 15.5192 24.7978 14.6438 24.7584C13.8338 24.721 13.3945 24.586 13.1017 24.4718C12.7411 24.3381 12.4148 24.126 12.1463 23.8508C11.8703 23.5824 11.6575 23.2561 11.5232 22.8954C11.41 22.6036 11.274 22.1633 11.2376 21.3533C11.1982 20.4778 11.1898 20.2151 11.1898 17.9959C11.1898 15.7767 11.1982 15.5161 11.2376 14.6407C11.275 13.8307 11.41 13.3903 11.5242 13.0975C11.6748 12.7102 11.8555 12.4329 12.1463 12.1421C12.437 11.8513 12.7133 11.6717 13.1017 11.5211C13.3945 11.4069 13.8338 11.2719 14.6438 11.2345C15.4102 11.1992 15.7072 11.1888 17.2555 11.1878V11.1898ZM22.4353 12.5689C22.3044 12.5689 22.1748 12.5947 22.0538 12.6448C21.9329 12.6949 21.823 12.7683 21.7304 12.8609C21.6378 12.9535 21.5644 13.0634 21.5143 13.1843C21.4642 13.3053 21.4384 13.4349 21.4384 13.5658C21.4384 13.6968 21.4642 13.8264 21.5143 13.9474C21.5644 14.0683 21.6378 14.1782 21.7304 14.2708C21.823 14.3633 21.9329 14.4368 22.0538 14.4869C22.1748 14.537 22.3044 14.5628 22.4353 14.5628C22.6997 14.5628 22.9533 14.4577 23.1403 14.2708C23.3272 14.0838 23.4323 13.8302 23.4323 13.5658C23.4323 13.3014 23.3272 13.0479 23.1403 12.8609C22.9533 12.674 22.6997 12.5689 22.4353 12.5689ZM18.0011 13.7341C17.4352 13.7252 16.8732 13.8291 16.3479 14.0395C15.8225 14.25 15.3442 14.5628 14.9409 14.9599C14.5376 15.357 14.2173 15.8303 13.9987 16.3523C13.7801 16.8743 13.6675 17.4346 13.6675 18.0006C13.6675 18.5666 13.7801 19.1269 13.9987 19.6489C14.2173 20.1709 14.5376 20.6442 14.9409 21.0413C15.3442 21.4383 15.8225 21.7512 16.3479 21.9617C16.8732 22.1721 17.4352 22.2759 18.0011 22.2671C19.1211 22.2496 20.1894 21.7924 20.9752 20.9942C21.7611 20.196 22.2016 19.1208 22.2016 18.0006C22.2016 16.8804 21.7611 15.8052 20.9752 15.007C20.1894 14.2087 19.1211 13.7515 18.0011 13.7341ZM18.0011 15.2305C18.3648 15.2305 18.725 15.3021 19.061 15.4413C19.397 15.5805 19.7023 15.7845 19.9595 16.0417C20.2167 16.2989 20.4207 16.6042 20.5599 16.9402C20.6991 17.2762 20.7707 17.6364 20.7707 18.0001C20.7707 18.3638 20.6991 18.7239 20.5599 19.0599C20.4207 19.396 20.2167 19.7013 19.9595 19.9585C19.7023 20.2156 19.397 20.4196 19.061 20.5588C18.725 20.698 18.3648 20.7697 18.0011 20.7697C17.2666 20.7697 16.5621 20.4779 16.0427 19.9585C15.5233 19.4391 15.2315 18.7346 15.2315 18.0001C15.2315 17.2655 15.5233 16.5611 16.0427 16.0417C16.5621 15.5223 17.2666 15.2305 18.0011 15.2305Z" fill="#F5F5F5"/>
</g>
<defs>
<clipPath id="clip0_5257_54046">
<rect width="16.6154" height="16.6154" fill="white" transform="translate(9.69238 9.69238)"/>
</clipPath>
</defs>
</svg>
