<svg width="53" height="52" viewBox="0 0 53 52" fill="none" xmlns="http://www.w3.org/2000/svg">
<rect x="0.5" width="52" height="52" rx="6" fill="url(#paint0_linear_5446_342)"/>
<path d="M35.5 21C35.7652 21 36.0196 21.1054 36.2071 21.2929C36.3946 21.4804 36.5 21.7348 36.5 22C36.5 22.2652 36.3946 22.5196 36.2071 22.7071C36.0196 22.8946 35.7652 23 35.5 23V33C35.7652 33 36.0196 33.1054 36.2071 33.2929C36.3946 33.4804 36.5 33.7348 36.5 34C36.5 34.2652 36.3946 34.5196 36.2071 34.7071C36.0196 34.8946 35.7652 35 35.5 35H17.5C17.2348 35 16.9804 34.8946 16.7929 34.7071C16.6054 34.5196 16.5 34.2652 16.5 34C16.5 33.7348 16.6054 33.4804 16.7929 33.2929C16.9804 33.1054 17.2348 33 17.5 33V23C17.2348 23 16.9804 22.8946 16.7929 22.7071C16.6054 22.5196 16.5 22.2652 16.5 22C16.5 21.7348 16.6054 21.4804 16.7929 21.2929C16.9804 21.1054 17.2348 21 17.5 21H35.5ZM21.5 25C21.2348 25 20.9804 25.1054 20.7929 25.2929C20.6054 25.4804 20.5 25.7348 20.5 26V33H22.5V26C22.5 25.7348 22.3946 25.4804 22.2071 25.2929C22.0196 25.1054 21.7652 25 21.5 25ZM26.5 25C26.2348 25 25.9804 25.1054 25.7929 25.2929C25.6054 25.4804 25.5 25.7348 25.5 26V33H27.5V26C27.5 25.7348 27.3946 25.4804 27.2071 25.2929C27.0196 25.1054 26.7652 25 26.5 25ZM31.5 25C31.2348 25 30.9804 25.1054 30.7929 25.2929C30.6054 25.4804 30.5 25.7348 30.5 26V33H32.5V26C32.5 25.7348 32.3946 25.4804 32.2071 25.2929C32.0196 25.1054 31.7652 25 31.5 25ZM32.5 18C32.7652 18 33.0196 18.1054 33.2071 18.2929C33.3946 18.4804 33.5 18.7348 33.5 19C33.5 19.2652 33.3946 19.5196 33.2071 19.7071C33.0196 19.8946 32.7652 20 32.5 20H20.5C20.2348 20 19.9804 19.8946 19.7929 19.7071C19.6054 19.5196 19.5 19.2652 19.5 19C19.5 18.7348 19.6054 18.4804 19.7929 18.2929C19.9804 18.1054 20.2348 18 20.5 18H32.5Z" fill="#F5F5F5"/>
<defs>
<linearGradient id="paint0_linear_5446_342" x1="0.5" y1="26" x2="52.5" y2="26" gradientUnits="userSpaceOnUse">
<stop stop-color="#35D29B"/>
<stop offset="1" stop-color="#5FA6F8"/>
</linearGradient>
</defs>
</svg>
