<svg width="36" height="36" viewBox="0 0 36 36" fill="none" xmlns="http://www.w3.org/2000/svg">
<rect width="36" height="36" rx="4.15385" fill="#F5F5F5" fill-opacity="0.05"/>
<path d="M12.4618 13.8461C13.2265 13.8461 13.8464 13.2262 13.8464 12.4615C13.8464 11.6968 13.2265 11.0769 12.4618 11.0769C11.6971 11.0769 11.0771 11.6968 11.0771 12.4615C11.0771 13.2262 11.6971 13.8461 12.4618 13.8461Z" fill="#F5F5F5" stroke="#F5F5F5" stroke-width="1.38462" stroke-linecap="round" stroke-linejoin="round"/>
<path d="M11.0771 15.9228H13.8464V24.2305H11.0771V15.9228ZM24.9233 24.2305H22.1541V19.3843C22.1541 19.0171 22.0082 18.6649 21.7485 18.4052C21.4889 18.1456 21.1367 17.9997 20.7695 17.9997C20.4022 17.9997 20.0501 18.1456 19.7904 18.4052C19.5307 18.6649 19.3848 19.0171 19.3848 19.3843V24.2305H16.6156V19.3843C16.6156 18.2826 17.0532 17.2261 17.8322 16.4471C18.6112 15.6681 19.6678 15.2305 20.7695 15.2305C21.8711 15.2305 22.9277 15.6681 23.7067 16.4471C24.4857 17.2261 24.9233 18.2826 24.9233 19.3843V24.2305Z" fill="#F5F5F5" stroke="#F5F5F5" stroke-width="1.38462" stroke-linecap="round" stroke-linejoin="round"/>
</svg>
