<svg width="163" height="44" viewBox="0 0 163 44" fill="none" xmlns="http://www.w3.org/2000/svg">
<path d="M29.7668 28.3791L27.9173 26.4819L25.9795 28.3558L27.9112 30.502C28.1779 30.7983 28.197 31.2422 27.9567 31.5603L27.707 31.8909C27.4613 32.2161 27.4873 32.6713 27.7684 32.9664L36.3724 41.9991C36.7033 42.3464 37.2585 42.3428 37.5849 41.9912L40.9432 38.3728C41.2437 38.049 41.2389 37.547 40.9323 37.229L32.3027 28.28C32.0047 27.9709 31.5205 27.9393 31.1848 28.207L30.8816 28.4488C30.5473 28.7154 30.0653 28.6853 29.7668 28.3791Z" fill="#F9FCFF" stroke="#F9FCFF" stroke-width="0.832159"/>
<ellipse cx="16.6219" cy="16.8238" rx="14.5711" ry="14.5711" fill="#0D47A1" stroke="#F9FCFF" stroke-width="2.65287"/>
<path d="M27.9849 17.2397C27.7659 23.3288 22.764 28.1976 16.6216 28.1978C10.479 28.1978 5.4763 23.3288 5.25732 17.2397L16.6216 17.2407L27.9849 17.2397Z" fill="#0D47A1" stroke="#F9FCFF" stroke-width="0.832983"/>
<path d="M20.2569 21.8101C20.2232 21.7719 19.8768 21.7719 19.8768 21.7719C19.8768 21.7719 19.5786 21.769 19.5156 21.7651C19.4526 21.7612 19.3851 21.8435 19.4569 21.8507C19.5287 21.8579 20.1962 21.9702 20.2459 21.9198C20.2956 21.8694 20.2907 21.8484 20.2569 21.8101Z" fill="#333333"/>
<path d="M19.8992 21.8431C19.8686 21.8563 19.3496 21.8526 19.3823 21.8431C19.4151 21.8337 19.4906 21.748 19.4906 21.666C19.4906 21.584 19.4679 21.2087 19.4906 21.2087H19.723C19.7477 21.2087 19.723 21.5002 19.723 21.5964C19.723 21.6926 19.9299 21.8299 19.8992 21.8431Z" fill="#333333"/>
<path d="M19.7323 21.2089C19.7323 21.1827 19.6465 21.2089 19.6465 21.2089V21.8477H19.8881C19.9453 21.8477 19.7323 21.697 19.7323 21.5922V21.2089Z" fill="#333333"/>
<path d="M19.7323 21.2089C19.7323 21.1827 19.6465 21.2089 19.6465 21.2089V21.8477H19.8881C19.9453 21.8477 19.7323 21.697 19.7323 21.5922V21.2089Z" fill="#272B6B" fill-opacity="0.05"/>
<path d="M18.9015 20.8563C18.8927 20.6453 19.4877 19.0031 19.5828 19.0354C19.6779 19.0677 20.3378 20.6334 20.2995 20.8563C20.2611 21.0792 19.8029 21.2087 19.7473 21.2087H19.4536C19.39 21.2087 18.9102 21.0673 18.9015 20.8563Z" fill="#009688"/>
<path d="M19.3998 19.3558C19.4782 19.1858 19.5468 19.0361 19.5843 19.0361C19.7115 19.2055 20.3743 20.5191 20.2886 20.8992C20.2533 21.0854 19.7474 21.2118 19.7474 21.2118C19.6745 21.2326 19.6156 21.226 19.442 21.2118C19.2684 21.1976 19.1152 21.115 19.2305 21.0708C19.381 20.9879 19.442 20.8798 19.442 20.8798C19.6687 20.5963 19.4627 19.6317 19.3998 19.3558Z" fill="#009688"/>
<path d="M19.3998 19.3558C19.4782 19.1858 19.5468 19.0361 19.5843 19.0361C19.7115 19.2055 20.3743 20.5191 20.2886 20.8992C20.2533 21.0854 19.7474 21.2118 19.7474 21.2118C19.6745 21.2326 19.6156 21.226 19.442 21.2118C19.2684 21.1976 19.1152 21.115 19.2305 21.0708C19.381 20.9879 19.442 20.8798 19.442 20.8798C19.6687 20.5963 19.4627 19.6317 19.3998 19.3558Z" fill="#333333" fill-opacity="0.15"/>
<path d="M19.5362 19.2701C19.4652 19.1755 19.5505 19.0236 19.5847 19.0375C19.6479 19.0632 20.3905 20.5441 20.2972 20.8881C20.2786 21.0574 19.642 21.3162 19.7136 21.1848C19.7852 21.0533 20.0453 20.7933 19.9591 20.3391C19.873 19.885 19.6039 19.3602 19.5362 19.2701Z" fill="#009688"/>
<path d="M19.5362 19.2701C19.4652 19.1755 19.5505 19.0236 19.5847 19.0375C19.6479 19.0632 20.3905 20.5441 20.2972 20.8881C20.2786 21.0574 19.642 21.3162 19.7136 21.1848C19.7852 21.0533 20.0453 20.7933 19.9591 20.3391C19.873 19.885 19.6039 19.3602 19.5362 19.2701Z" fill="#333333" fill-opacity="0.35"/>
<path d="M18.9215 24.8812C18.8877 24.8429 18.5413 24.8429 18.5413 24.8429C18.5413 24.8429 18.2432 24.84 18.1802 24.8361C18.1172 24.8322 18.0496 24.9145 18.1215 24.9217C18.1933 24.929 18.8608 25.0412 18.9104 24.9908C18.9601 24.9404 18.9552 24.9194 18.9215 24.8812Z" fill="#333333"/>
<path d="M18.5638 24.9142C18.5332 24.9274 18.0141 24.9236 18.0469 24.9142C18.0797 24.9047 18.1552 24.8191 18.1552 24.7371C18.1552 24.6551 18.1325 24.2798 18.1552 24.2798H18.3876C18.4122 24.2798 18.3876 24.5713 18.3876 24.6675C18.3876 24.7636 18.5944 24.9009 18.5638 24.9142Z" fill="#333333"/>
<path d="M18.3969 24.2804C18.3969 24.2542 18.311 24.2804 18.311 24.2804V24.9192H18.5526C18.6099 24.9192 18.3969 24.7685 18.3969 24.6637V24.2804Z" fill="#333333"/>
<path d="M18.3969 24.2804C18.3969 24.2542 18.311 24.2804 18.311 24.2804V24.9192H18.5526C18.6099 24.9192 18.3969 24.7685 18.3969 24.6637V24.2804Z" fill="#272B6B" fill-opacity="0.05"/>
<path d="M17.566 23.9273C17.5573 23.7163 18.1523 22.0741 18.2474 22.1064C18.3425 22.1387 19.0023 23.7044 18.964 23.9273C18.9257 24.1502 18.4675 24.2798 18.4119 24.2798H18.1182C18.0545 24.2798 17.5748 24.1383 17.566 23.9273Z" fill="#009688"/>
<path d="M18.0638 22.4271C18.1423 22.2571 18.2109 22.1074 18.2484 22.1074C18.3756 22.2768 19.0384 23.5903 18.9527 23.9705C18.9174 24.1567 18.4115 24.2831 18.4115 24.2831C18.3386 24.3039 18.2796 24.2972 18.106 24.2831C17.9324 24.2689 17.7792 24.1862 17.8946 24.1421C18.0451 24.0592 18.106 23.9511 18.106 23.9511C18.3328 23.6676 18.1267 22.703 18.0638 22.4271Z" fill="#009688"/>
<path d="M18.0638 22.4271C18.1423 22.2571 18.2109 22.1074 18.2484 22.1074C18.3756 22.2768 19.0384 23.5903 18.9527 23.9705C18.9174 24.1567 18.4115 24.2831 18.4115 24.2831C18.3386 24.3039 18.2796 24.2972 18.106 24.2831C17.9324 24.2689 17.7792 24.1862 17.8946 24.1421C18.0451 24.0592 18.106 23.9511 18.106 23.9511C18.3328 23.6676 18.1267 22.703 18.0638 22.4271Z" fill="#333333" fill-opacity="0.15"/>
<path d="M18.1993 22.3416C18.1283 22.2471 18.2136 22.0951 18.2478 22.1091C18.3109 22.1348 19.0536 23.6156 18.9602 23.9596C18.9417 24.1289 18.3051 24.3877 18.3767 24.2563C18.4483 24.1249 18.7084 23.8648 18.6222 23.4107C18.5361 22.9565 18.267 22.4318 18.1993 22.3416Z" fill="#009688"/>
<path d="M18.1993 22.3416C18.1283 22.2471 18.2136 22.0951 18.2478 22.1091C18.3109 22.1348 19.0536 23.6156 18.9602 23.9596C18.9417 24.1289 18.3051 24.3877 18.3767 24.2563C18.4483 24.1249 18.7084 23.8648 18.6222 23.4107C18.5361 22.9565 18.267 22.4318 18.1993 22.3416Z" fill="#333333" fill-opacity="0.35"/>
<path d="M17.0725 26.4623C17.0388 26.4241 16.6932 26.4241 16.6932 26.4241C16.6932 26.4241 16.3957 26.4212 16.3328 26.4173C16.27 26.4134 16.2026 26.4955 16.2742 26.5027C16.3459 26.5099 17.0119 26.622 17.0615 26.5717C17.1111 26.5214 17.1062 26.5004 17.0725 26.4623Z" fill="#333333"/>
<path d="M16.7155 26.495C16.6849 26.5082 16.167 26.5044 16.1997 26.495C16.2324 26.4856 16.3078 26.4001 16.3078 26.3183C16.3078 26.2365 16.2851 25.8621 16.3078 25.8621H16.5397C16.5642 25.8621 16.5397 26.1529 16.5397 26.2489C16.5397 26.3448 16.746 26.4818 16.7155 26.495Z" fill="#333333"/>
<path d="M16.5485 25.8625C16.5485 25.8363 16.4629 25.8625 16.4629 25.8625V26.4998H16.7039C16.761 26.4998 16.5485 26.3495 16.5485 26.2449V25.8625Z" fill="#333333"/>
<path d="M16.5485 25.8625C16.5485 25.8363 16.4629 25.8625 16.4629 25.8625V26.4998H16.7039C16.761 26.4998 16.5485 26.3495 16.5485 26.2449V25.8625Z" fill="#272B6B" fill-opacity="0.05"/>
<path d="M15.9639 25.6417C15.9578 25.5063 16.3729 24.453 16.4392 24.4737C16.5056 24.4944 16.9658 25.4987 16.9391 25.6417C16.9124 25.7847 16.5927 25.8677 16.554 25.8677H16.3491C16.3047 25.8677 15.97 25.777 15.9639 25.6417Z" fill="#009688"/>
<path d="M16.3106 24.6794C16.3653 24.5704 16.4131 24.4744 16.4393 24.4744C16.528 24.583 16.9904 25.4256 16.9306 25.6694C16.906 25.7888 16.5531 25.8699 16.5531 25.8699C16.5022 25.8832 16.4611 25.879 16.34 25.8699C16.2189 25.8608 16.112 25.8078 16.1925 25.7795C16.2975 25.7263 16.34 25.657 16.34 25.657C16.4982 25.4751 16.3545 24.8564 16.3106 24.6794Z" fill="#009688"/>
<path d="M16.3106 24.6794C16.3653 24.5704 16.4131 24.4744 16.4393 24.4744C16.528 24.583 16.9904 25.4256 16.9306 25.6694C16.906 25.7888 16.5531 25.8699 16.5531 25.8699C16.5022 25.8832 16.4611 25.879 16.34 25.8699C16.2189 25.8608 16.112 25.8078 16.1925 25.7795C16.2975 25.7263 16.34 25.657 16.34 25.657C16.4982 25.4751 16.3545 24.8564 16.3106 24.6794Z" fill="#333333" fill-opacity="0.15"/>
<path d="M16.4054 24.6244C16.3558 24.5637 16.4153 24.4662 16.4392 24.4752C16.4832 24.4917 17.0013 25.4415 16.9362 25.6622C16.9232 25.7708 16.4792 25.9368 16.5291 25.8525C16.579 25.7682 16.7605 25.6014 16.7004 25.3101C16.6403 25.0188 16.4526 24.6822 16.4054 24.6244Z" fill="#009688"/>
<path d="M16.4054 24.6244C16.3558 24.5637 16.4153 24.4662 16.4392 24.4752C16.4832 24.4917 17.0013 25.4415 16.9362 25.6622C16.9232 25.7708 16.4792 25.9368 16.5291 25.8525C16.579 25.7682 16.7605 25.6014 16.7004 25.3101C16.6403 25.0188 16.4526 24.6822 16.4054 24.6244Z" fill="#333333" fill-opacity="0.35"/>
<path d="M14.7615 21.3644C14.7952 21.3262 15.1408 21.3262 15.1408 21.3262C15.1408 21.3262 15.4383 21.3233 15.5011 21.3194C15.564 21.3155 15.6314 21.3976 15.5597 21.4048C15.4881 21.412 14.8221 21.5241 14.7725 21.4738C14.7229 21.4235 14.7278 21.4025 14.7615 21.3644Z" fill="#333333"/>
<path d="M15.1185 21.3974C15.1491 21.4106 15.667 21.4068 15.6343 21.3974C15.6016 21.388 15.5262 21.3025 15.5262 21.2207C15.5262 21.1388 15.5489 20.7644 15.5262 20.7644H15.2943C15.2697 20.7644 15.2943 21.0553 15.2943 21.1512C15.2943 21.2472 15.0879 21.3842 15.1185 21.3974Z" fill="#333333"/>
<path d="M15.2845 20.7646C15.2845 20.7384 15.3701 20.7646 15.3701 20.7646V21.4019H15.1291C15.072 21.4019 15.2845 21.2516 15.2845 21.147V20.7646Z" fill="#333333"/>
<path d="M15.2845 20.7646C15.2845 20.7384 15.3701 20.7646 15.3701 20.7646V21.4019H15.1291C15.072 21.4019 15.2845 21.2516 15.2845 21.147V20.7646Z" fill="#272B6B" fill-opacity="0.05"/>
<path d="M15.8705 20.544C15.8766 20.4087 15.4616 19.3553 15.3952 19.376C15.3289 19.3967 14.8686 20.401 14.8954 20.544C14.9221 20.687 15.2417 20.7701 15.2805 20.7701H15.4854C15.5298 20.7701 15.8644 20.6794 15.8705 20.544Z" fill="#009688"/>
<path d="M15.5234 19.5815C15.4687 19.4725 15.4209 19.3765 15.3947 19.3765C15.3059 19.4851 14.8436 20.3277 14.9034 20.5715C14.928 20.6909 15.2809 20.772 15.2809 20.772C15.3318 20.7853 15.3729 20.7811 15.494 20.772C15.6151 20.7629 15.7219 20.7099 15.6415 20.6816C15.5365 20.6284 15.494 20.5591 15.494 20.5591C15.3358 20.3772 15.4795 19.7585 15.5234 19.5815Z" fill="#009688"/>
<path d="M15.5234 19.5815C15.4687 19.4725 15.4209 19.3765 15.3947 19.3765C15.3059 19.4851 14.8436 20.3277 14.9034 20.5715C14.928 20.6909 15.2809 20.772 15.2809 20.772C15.3318 20.7853 15.3729 20.7811 15.494 20.772C15.6151 20.7629 15.7219 20.7099 15.6415 20.6816C15.5365 20.6284 15.494 20.5591 15.494 20.5591C15.3358 20.3772 15.4795 19.7585 15.5234 19.5815Z" fill="#333333" fill-opacity="0.15"/>
<path d="M15.4276 19.5267C15.4772 19.4661 15.4177 19.3686 15.3938 19.3775C15.3498 19.394 14.8317 20.3439 14.8968 20.5645C14.9098 20.6731 15.3538 20.8391 15.3039 20.7548C15.254 20.6705 15.0725 20.5037 15.1326 20.2124C15.1927 19.9211 15.3804 19.5845 15.4276 19.5267Z" fill="#009688"/>
<path d="M15.4276 19.5267C15.4772 19.4661 15.4177 19.3686 15.3938 19.3775C15.3498 19.394 14.8317 20.3439 14.8968 20.5645C14.9098 20.6731 15.3538 20.8391 15.3039 20.7548C15.254 20.6705 15.0725 20.5037 15.1326 20.2124C15.1927 19.9211 15.3804 19.5845 15.4276 19.5267Z" fill="#333333" fill-opacity="0.35"/>
<path d="M18.1891 19.806C18.1848 19.6205 17.6138 19.0855 17.5647 19.0956C17.5155 19.1057 16.1132 20.081 16.1 20.1C16.0867 20.1189 16.8172 20.9082 17.1245 21.3534L18.647 20.3549C18.647 20.3549 18.2576 19.9696 18.1891 19.806Z" fill="#FFFF00"/>
<path d="M16.9157 20.8529C16.9676 20.8888 17.7382 19.9284 17.7174 19.8807C17.6965 19.8329 17.5712 19.8807 17.5639 19.7954C17.51 19.6696 17.589 19.2849 17.4599 19.2494C17.4076 19.235 17.3251 19.2667 17.3251 19.2667C17.3251 19.2667 16.1229 20.0442 16.1141 20.1024C16.1053 20.1606 16.8639 20.8169 16.9157 20.8529Z" fill="#FFFF00"/>
<path d="M16.9157 20.8529C16.9676 20.8888 17.7382 19.9284 17.7174 19.8807C17.6965 19.8329 17.5712 19.8807 17.5639 19.7954C17.51 19.6696 17.589 19.2849 17.4599 19.2494C17.4076 19.235 17.3251 19.2667 17.3251 19.2667C17.3251 19.2667 16.1229 20.0442 16.1141 20.1024C16.1053 20.1606 16.8639 20.8169 16.9157 20.8529Z" fill="#333333" fill-opacity="0.15"/>
<path d="M16.1039 20.0994C16.1039 20.0994 16.9836 21.1345 17.1289 21.3487C17.1407 21.3553 17.1067 22.4284 17.1067 22.4284C17.1067 22.4284 16.9044 22.4103 16.8119 22.4434C16.7194 22.4765 16.2478 22.7594 16.1535 22.7415C16.0592 22.7235 15.3173 21.8955 15.3002 21.8478C15.8581 21.557 15.9331 21.4067 15.9331 21.3553C15.9331 21.304 15.9677 20.6531 15.9331 20.6021C15.8985 20.5511 15.744 20.5303 15.7418 20.4798C15.7396 20.4293 16.1039 20.0994 16.1039 20.0994Z" fill="#333333"/>
<path d="M17.1289 21.3507L18.6484 20.3545L18.6538 21.6748C18.2483 21.8489 17.623 22.0512 17.1054 22.4287L17.1289 21.3507Z" fill="#333333" fill-opacity="0.75"/>
<path d="M17.1289 21.3507L18.6484 20.3545L18.6538 21.6748C18.2483 21.8489 17.623 22.0512 17.1054 22.4287L17.1289 21.3507Z" fill="#333333" fill-opacity="0.2"/>
<path d="M17.4829 19.2629C17.4543 19.2123 17.3717 19.2562 17.3616 19.2261C17.4035 19.1968 17.4847 19.1422 17.5584 19.0963C17.6322 19.0504 17.9249 19.5386 17.9308 19.5921C17.9366 19.6456 17.6901 19.9733 17.6588 19.885C17.4563 19.8508 17.5875 19.3582 17.4829 19.2629Z" fill="#0D47A1"/>
<path d="M17.8691 21.154C17.8905 21.0982 18.1943 21.0205 18.1943 21.0205C18.2349 20.9969 18.3428 21.6023 18.3452 21.7144C18.3476 21.8265 18.0188 21.9497 17.8904 21.9497C17.9174 21.7995 17.8478 21.2099 17.8691 21.154Z" fill="#0D47A1"/>
<path d="M16.292 20.8949C16.3145 20.9092 16.6041 21.127 16.6041 21.1461C16.6041 21.1651 16.6275 21.4901 16.6041 21.4809C16.5806 21.4717 16.2858 21.3189 16.292 21.2898C16.2983 21.2606 16.2696 20.8807 16.292 20.8949Z" fill="#0D47A1"/>
<path d="M16.2693 21.5646C16.3095 21.5595 16.501 21.6671 16.4995 21.6901C16.4979 21.7131 15.6647 22.1878 15.6964 22.1382C15.6964 22.1382 15.4455 21.9538 15.5172 21.8872C15.8757 21.8206 16.2291 21.5697 16.2693 21.5646Z" fill="#0D47A1"/>
<path d="M17.4755 19.251C17.4232 19.2123 17.3503 19.2083 17.3136 19.2655C17.1455 19.6246 17.3888 20.1251 17.4995 20.0918C17.5479 20.1101 17.7114 19.8965 17.731 19.8723C17.7505 19.8482 17.6383 19.889 17.5958 19.8417C17.5053 19.7408 17.5886 19.2986 17.4755 19.251Z" fill="#333333"/>
<path d="M17.6361 21.2368L17.8644 21.1603C17.8644 21.1603 17.9227 21.7572 17.9062 21.8553C17.8896 21.9534 18.1533 21.8942 18.1533 21.9788C18.0241 22.0352 17.6749 22.0338 17.6532 21.9788C17.6386 21.9418 17.6361 21.2368 17.6361 21.2368Z" fill="#333333"/>
<path d="M10.3659 21.6046C10.317 21.5492 9.81514 21.5492 9.81514 21.5492C9.81514 21.5492 9.3832 21.5449 9.29192 21.5393C9.20063 21.5336 9.10278 21.6529 9.20683 21.6633C9.31088 21.6738 10.278 21.8365 10.3499 21.7635C10.4219 21.6904 10.4148 21.66 10.3659 21.6046Z" fill="#333333"/>
<path d="M9.84627 21.6525C9.8019 21.6717 9.0499 21.6662 9.09737 21.6525C9.14484 21.6388 9.25427 21.5147 9.25427 21.3959C9.25427 21.2771 9.22133 20.7334 9.25427 20.7334H9.59096C9.62666 20.7334 9.59096 21.1557 9.59096 21.2951C9.59096 21.4344 9.89064 21.6333 9.84627 21.6525Z" fill="#333333"/>
<path d="M9.6048 20.7339C9.6048 20.6959 9.48047 20.7339 9.48047 20.7339V21.6594H9.8305C9.9134 21.6594 9.6048 21.4411 9.6048 21.2892V20.7339Z" fill="#333333"/>
<path d="M9.6048 20.7339C9.6048 20.6959 9.48047 20.7339 9.48047 20.7339V21.6594H9.8305C9.9134 21.6594 9.6048 21.4411 9.6048 21.2892V20.7339Z" fill="#272B6B" fill-opacity="0.05"/>
<path d="M8.75498 20.4134C8.74612 20.2169 9.34882 18.6874 9.44513 18.7175C9.54144 18.7475 10.2098 20.2058 10.171 20.4134C10.1322 20.6211 9.66804 20.7417 9.61172 20.7417H9.31425C9.24979 20.7417 8.76384 20.61 8.75498 20.4134Z" fill="#009688"/>
<path d="M9.25939 19.0157C9.33887 18.8574 9.40831 18.718 9.44635 18.718C9.57516 18.8758 10.2465 20.0992 10.1597 20.4533C10.1239 20.6267 9.61153 20.7444 9.61153 20.7444C9.53767 20.7638 9.47799 20.7576 9.30214 20.7444C9.12629 20.7312 8.97111 20.6542 9.08797 20.6131C9.24039 20.5358 9.30214 20.4352 9.30214 20.4352C9.5318 20.1711 9.32313 19.2727 9.25939 19.0157Z" fill="#009688"/>
<path d="M9.25939 19.0157C9.33887 18.8574 9.40831 18.718 9.44635 18.718C9.57516 18.8758 10.2465 20.0992 10.1597 20.4533C10.1239 20.6267 9.61153 20.7444 9.61153 20.7444C9.53767 20.7638 9.47799 20.7576 9.30214 20.7444C9.12629 20.7312 8.97111 20.6542 9.08797 20.6131C9.24039 20.5358 9.30214 20.4352 9.30214 20.4352C9.5318 20.1711 9.32313 19.2727 9.25939 19.0157Z" fill="#333333" fill-opacity="0.15"/>
<path d="M9.39694 18.9364C9.32502 18.8484 9.41136 18.7068 9.44607 18.7198C9.51 18.7438 10.2622 20.123 10.1677 20.4434C10.1489 20.6011 9.50409 20.8421 9.57659 20.7197C9.64909 20.5973 9.91255 20.3551 9.8253 19.9321C9.73804 19.5091 9.46549 19.0204 9.39694 18.9364Z" fill="#009688"/>
<path d="M9.39694 18.9364C9.32502 18.8484 9.41136 18.7068 9.44607 18.7198C9.51 18.7438 10.2622 20.123 10.1677 20.4434C10.1489 20.6011 9.50409 20.8421 9.57659 20.7197C9.64909 20.5973 9.91255 20.3551 9.8253 19.9321C9.73804 19.5091 9.46549 19.0204 9.39694 18.9364Z" fill="#333333" fill-opacity="0.35"/>
<path d="M10.3126 20.7091C10.3197 20.4084 11.2453 19.541 11.3251 19.5574C11.4048 19.5737 13.6784 21.155 13.6999 21.1857C13.7213 21.2165 12.537 22.4962 12.0388 23.218L9.57031 21.5991C9.57031 21.5991 10.2016 20.9745 10.3126 20.7091Z" fill="#008000"/>
<path d="M12.378 22.4065C12.2939 22.4647 11.0445 20.9076 11.0783 20.8302C11.1121 20.7528 11.3153 20.8302 11.3272 20.6919C11.4145 20.488 11.2864 19.8643 11.4958 19.8066C11.5805 19.7833 11.7143 19.8347 11.7143 19.8347C11.7143 19.8347 13.6634 21.0953 13.6777 21.1897C13.6921 21.284 12.4621 22.3482 12.378 22.4065Z" fill="#008000"/>
<path d="M12.378 22.4065C12.2939 22.4647 11.0445 20.9076 11.0783 20.8302C11.1121 20.7528 11.3153 20.8302 11.3272 20.6919C11.4145 20.488 11.2864 19.8643 11.4958 19.8066C11.5805 19.7833 11.7143 19.8347 11.7143 19.8347C11.7143 19.8347 13.6634 21.0953 13.6777 21.1897C13.6921 21.284 12.4621 22.3482 12.378 22.4065Z" fill="#333333" fill-opacity="0.15"/>
<path d="M13.6937 21.1848C13.6937 21.1848 12.2674 22.8631 12.0319 23.2104C12.0127 23.2212 12.0678 24.9609 12.0678 24.9609C12.0678 24.9609 12.3957 24.9316 12.5457 24.9852C12.6958 25.0389 13.4603 25.4976 13.6132 25.4685C13.7661 25.4394 14.969 24.0969 14.9967 24.0195C14.0921 23.5481 13.9706 23.3045 13.9706 23.2212C13.9706 23.1379 13.9146 22.0825 13.9706 21.9999C14.0266 21.9172 14.2771 21.8834 14.2807 21.8015C14.2843 21.7197 13.6937 21.1848 13.6937 21.1848Z" fill="#333333"/>
<path d="M12.0324 23.2136L9.56886 21.5984L9.56006 23.7391C10.2174 24.0213 11.2314 24.3494 12.0705 24.9613L12.0324 23.2136Z" fill="#333333" fill-opacity="0.75"/>
<path d="M12.0324 23.2136L9.56886 21.5984L9.56006 23.7391C10.2174 24.0213 11.2314 24.3494 12.0705 24.9613L12.0324 23.2136Z" fill="#333333" fill-opacity="0.2"/>
<path d="M11.4611 19.8285C11.5074 19.7464 11.6413 19.8176 11.6577 19.7689C11.5898 19.7214 11.4581 19.6328 11.3386 19.5584C11.2191 19.484 10.7444 20.2755 10.7349 20.3622C10.7254 20.449 11.1251 20.9802 11.1759 20.8372C11.5041 20.7816 11.2915 19.9831 11.4611 19.8285Z" fill="#0D47A1"/>
<path d="M10.8349 22.8946C10.8002 22.8041 10.3076 22.6782 10.3076 22.6782C10.2418 22.6399 10.0669 23.6215 10.063 23.8032C10.0591 23.9849 10.5922 24.1847 10.8004 24.1847C10.7566 23.9412 10.8695 22.9852 10.8349 22.8946Z" fill="#0D47A1"/>
<path d="M13.3918 22.4746C13.3555 22.4977 12.8859 22.8509 12.8859 22.8818C12.8859 22.9126 12.848 23.4394 12.8859 23.4246C12.9239 23.4097 13.4019 23.162 13.3918 23.1147C13.3817 23.0675 13.4282 22.4514 13.3918 22.4746Z" fill="#0D47A1"/>
<path d="M13.4287 23.5603C13.3635 23.552 13.0531 23.7266 13.0556 23.7638C13.058 23.8011 14.4089 24.5706 14.3575 24.4902C14.3575 24.4902 14.7644 24.1913 14.6482 24.0834C14.0669 23.9754 13.494 23.5686 13.4287 23.5603Z" fill="#0D47A1"/>
<path d="M11.4706 19.8087C11.5553 19.7459 11.6735 19.7395 11.733 19.8323C12.0056 20.4145 11.6111 21.2259 11.4316 21.1719C11.3531 21.2016 11.0881 20.8552 11.0564 20.8161C11.0246 20.777 11.2066 20.8431 11.2754 20.7664C11.4222 20.6029 11.2871 19.8859 11.4706 19.8087Z" fill="#333333"/>
<path d="M11.2101 23.0284L10.84 22.9043C10.84 22.9043 10.7455 23.8721 10.7723 24.0312C10.7991 24.1903 10.3716 24.0942 10.3716 24.2313C10.5812 24.3227 11.1473 24.3206 11.1825 24.2313C11.2061 24.1714 11.2101 23.0284 11.2101 23.0284Z" fill="#333333"/>
<path d="M13.0626 25.6991C13.033 25.6656 12.7296 25.6656 12.7296 25.6656C12.7296 25.6656 12.4684 25.663 12.4132 25.6596C12.358 25.6562 12.2988 25.7283 12.3617 25.7346C12.4246 25.741 13.0094 25.8393 13.0529 25.7952C13.0964 25.751 13.0922 25.7326 13.0626 25.6991Z" fill="#333333"/>
<path d="M12.7012 25.7227C12.6744 25.7274 12.2197 25.726 12.2484 25.7227C12.2771 25.7193 12.3432 25.6889 12.3432 25.6597C12.3432 25.6305 12.3233 25.4971 12.3432 25.4971H12.5468C12.5684 25.4971 12.5468 25.6007 12.5468 25.6349C12.5468 25.6691 12.728 25.718 12.7012 25.7227Z" fill="#333333"/>
<path d="M12.5561 25.4976C12.5561 25.4882 12.481 25.4976 12.481 25.4976V25.7247H12.6926C12.7427 25.7247 12.5561 25.6711 12.5561 25.6338V25.4976Z" fill="#333333"/>
<path d="M12.5561 25.4976C12.5561 25.4882 12.481 25.4976 12.481 25.4976V25.7247H12.6926C12.7427 25.7247 12.5561 25.6711 12.5561 25.6338V25.4976Z" fill="#272B6B" fill-opacity="0.05"/>
<path d="M11.8267 25.3453C11.8191 25.2469 12.3404 24.4812 12.4237 24.4963C12.507 24.5114 13.085 25.2414 13.0515 25.3453C13.0179 25.4493 12.6165 25.5097 12.5677 25.5097H12.3105C12.2547 25.5097 11.8344 25.4437 11.8267 25.3453Z" fill="#009688"/>
<path d="M12.2635 24.6456C12.3322 24.5664 12.3923 24.4966 12.4252 24.4966C12.5366 24.5756 13.1172 25.188 13.0421 25.3653C13.0112 25.4521 12.568 25.511 12.568 25.511C12.5041 25.5207 12.4525 25.5176 12.3004 25.511C12.1483 25.5044 12.0141 25.4659 12.1152 25.4453C12.247 25.4066 12.3004 25.3562 12.3004 25.3562C12.4991 25.224 12.3186 24.7743 12.2635 24.6456Z" fill="#009688"/>
<path d="M12.2635 24.6456C12.3322 24.5664 12.3923 24.4966 12.4252 24.4966C12.5366 24.5756 13.1172 25.188 13.0421 25.3653C13.0112 25.4521 12.568 25.511 12.568 25.511C12.5041 25.5207 12.4525 25.5176 12.3004 25.511C12.1483 25.5044 12.0141 25.4659 12.1152 25.4453C12.247 25.4066 12.3004 25.3562 12.3004 25.3562C12.4991 25.224 12.3186 24.7743 12.2635 24.6456Z" fill="#333333" fill-opacity="0.15"/>
<path d="M12.3829 24.6062C12.3207 24.5621 12.3954 24.4912 12.4254 24.4977C12.4807 24.5097 13.1313 25.2002 13.0495 25.3606C13.0333 25.4395 12.4756 25.5602 12.5383 25.4989C12.601 25.4376 12.8289 25.3164 12.7534 25.1046C12.6779 24.8929 12.4422 24.6482 12.3829 24.6062Z" fill="#009688"/>
<path d="M12.3829 24.6062C12.3207 24.5621 12.3954 24.4912 12.4254 24.4977C12.4807 24.5097 13.1313 25.2002 13.0495 25.3606C13.0333 25.4395 12.4756 25.5602 12.5383 25.4989C12.601 25.4376 12.8289 25.3164 12.7534 25.1046C12.6779 24.8929 12.4422 24.6482 12.3829 24.6062Z" fill="#333333" fill-opacity="0.35"/>
<path d="M15.2726 23.497C15.243 23.4634 14.9395 23.4634 14.9395 23.4634C14.9395 23.4634 14.6783 23.4609 14.6231 23.4575C14.5679 23.4541 14.5088 23.5262 14.5717 23.5325C14.6346 23.5388 15.2194 23.6372 15.2629 23.593C15.3064 23.5489 15.3021 23.5305 15.2726 23.497Z" fill="#333333"/>
<path d="M14.9112 23.521C14.8843 23.5257 14.4296 23.5244 14.4583 23.521C14.487 23.5177 14.5532 23.4872 14.5532 23.458C14.5532 23.4289 14.5333 23.2954 14.5532 23.2954H14.7568C14.7784 23.2954 14.7568 23.3991 14.7568 23.4333C14.7568 23.4675 14.938 23.5163 14.9112 23.521Z" fill="#333333"/>
<path d="M14.7656 23.2954C14.7656 23.2861 14.6904 23.2954 14.6904 23.2954V23.5226H14.9021C14.9522 23.5226 14.7656 23.469 14.7656 23.4317V23.2954Z" fill="#333333"/>
<path d="M14.7656 23.2954C14.7656 23.2861 14.6904 23.2954 14.6904 23.2954V23.5226H14.9021C14.9522 23.5226 14.7656 23.469 14.7656 23.4317V23.2954Z" fill="#272B6B" fill-opacity="0.05"/>
<path d="M14.0367 23.1432C14.029 23.0448 14.5503 22.2791 14.6336 22.2942C14.7169 22.3092 15.295 23.0392 15.2614 23.1432C15.2279 23.2471 14.8264 23.3075 14.7777 23.3075H14.5204C14.4647 23.3075 14.0444 23.2416 14.0367 23.1432Z" fill="#009688"/>
<path d="M14.4729 22.4437C14.5417 22.3645 14.6017 22.2947 14.6346 22.2947C14.746 22.3737 15.3267 22.9861 15.2516 23.1634C15.2207 23.2502 14.7775 23.3091 14.7775 23.3091C14.7136 23.3188 14.662 23.3157 14.5099 23.3091C14.3578 23.3025 14.2236 23.264 14.3247 23.2434C14.4565 23.2047 14.5099 23.1543 14.5099 23.1543C14.7085 23.0221 14.5281 22.5724 14.4729 22.4437Z" fill="#009688"/>
<path d="M14.4729 22.4437C14.5417 22.3645 14.6017 22.2947 14.6346 22.2947C14.746 22.3737 15.3267 22.9861 15.2516 23.1634C15.2207 23.2502 14.7775 23.3091 14.7775 23.3091C14.7136 23.3188 14.662 23.3157 14.5099 23.3091C14.3578 23.3025 14.2236 23.264 14.3247 23.2434C14.4565 23.2047 14.5099 23.1543 14.5099 23.1543C14.7085 23.0221 14.5281 22.5724 14.4729 22.4437Z" fill="#333333" fill-opacity="0.15"/>
<path d="M14.5924 22.404C14.5302 22.3599 14.6049 22.2891 14.6349 22.2956C14.6902 22.3076 15.3408 22.998 15.259 23.1584C15.2428 23.2374 14.6851 23.358 14.7478 23.2968C14.8105 23.2355 15.0384 23.1142 14.9629 22.9025C14.8874 22.6907 14.6517 22.446 14.5924 22.404Z" fill="#009688"/>
<path d="M14.5924 22.404C14.5302 22.3599 14.6049 22.2891 14.6349 22.2956C14.6902 22.3076 15.3408 22.998 15.259 23.1584C15.2428 23.2374 14.6851 23.358 14.7478 23.2968C14.8105 23.2355 15.0384 23.1142 14.9629 22.9025C14.8874 22.6907 14.6517 22.446 14.5924 22.404Z" fill="#333333" fill-opacity="0.35"/>
<path d="M24.1399 21.7672C24.1056 21.7283 23.754 21.7283 23.754 21.7283C23.754 21.7283 23.4514 21.7254 23.3874 21.7214C23.3235 21.7175 23.2549 21.801 23.3278 21.8083C23.4007 21.8157 24.0783 21.9297 24.1287 21.8785C24.1791 21.8273 24.1742 21.806 24.1399 21.7672Z" fill="#333333"/>
<path d="M23.7762 21.8007C23.7451 21.8141 23.2183 21.8103 23.2515 21.8007C23.2848 21.7911 23.3614 21.7041 23.3614 21.6209C23.3614 21.5377 23.3384 21.1567 23.3614 21.1567H23.5973C23.6223 21.1567 23.5973 21.4526 23.5973 21.5503C23.5973 21.6479 23.8073 21.7873 23.7762 21.8007Z" fill="#333333"/>
<path d="M23.6066 21.1568C23.6066 21.1302 23.5195 21.1568 23.5195 21.1568V21.8052H23.7648C23.8229 21.8052 23.6066 21.6523 23.6066 21.5459V21.1568Z" fill="#333333"/>
<path d="M23.6066 21.1568C23.6066 21.1302 23.5195 21.1568 23.5195 21.1568V21.8052H23.7648C23.8229 21.8052 23.6066 21.6523 23.6066 21.5459V21.1568Z" fill="#272B6B" fill-opacity="0.05"/>
<path d="M22.7623 20.799C22.7534 20.5848 23.3574 18.9179 23.4539 18.9507C23.5505 18.9834 24.2202 20.5727 24.1814 20.799C24.1425 21.0253 23.6773 21.1568 23.6209 21.1568H23.3228C23.2582 21.1568 22.7712 21.0132 22.7623 20.799Z" fill="#009688"/>
<path d="M23.2686 19.2759C23.3483 19.1033 23.4179 18.9514 23.456 18.9514C23.5851 19.1234 24.2579 20.4567 24.1709 20.8426C24.1351 21.0316 23.6215 21.1598 23.6215 21.1598C23.5475 21.181 23.4877 21.1742 23.3115 21.1598C23.1353 21.1454 22.9797 21.0616 23.0968 21.0167C23.2496 20.9326 23.3115 20.8229 23.3115 20.8229C23.5416 20.5351 23.3325 19.556 23.2686 19.2759Z" fill="#009688"/>
<path d="M23.2686 19.2759C23.3483 19.1033 23.4179 18.9514 23.456 18.9514C23.5851 19.1234 24.2579 20.4567 24.1709 20.8426C24.1351 21.0316 23.6215 21.1598 23.6215 21.1598C23.5475 21.181 23.4877 21.1742 23.3115 21.1598C23.1353 21.1454 22.9797 21.0616 23.0968 21.0167C23.2496 20.9326 23.3115 20.8229 23.3115 20.8229C23.5416 20.5351 23.3325 19.556 23.2686 19.2759Z" fill="#333333" fill-opacity="0.15"/>
<path d="M23.4068 19.1891C23.3347 19.0932 23.4212 18.9389 23.456 18.9531C23.5201 18.9792 24.2739 20.4823 24.1791 20.8315C24.1603 21.0034 23.5141 21.266 23.5868 21.1327C23.6595 20.9993 23.9235 20.7353 23.836 20.2743C23.7486 19.8133 23.4755 19.2806 23.4068 19.1891Z" fill="#009688"/>
<path d="M23.4068 19.1891C23.3347 19.0932 23.4212 18.9389 23.456 18.9531C23.5201 18.9792 24.2739 20.4823 24.1791 20.8315C24.1603 21.0034 23.5141 21.266 23.5868 21.1327C23.6595 20.9993 23.9235 20.7353 23.836 20.2743C23.7486 19.8133 23.4755 19.2806 23.4068 19.1891Z" fill="#333333" fill-opacity="0.35"/>
<path d="M24.2329 21.2227C24.2273 20.9846 23.4941 20.2975 23.431 20.3105C23.3678 20.3234 21.5671 21.5758 21.5501 21.6002C21.5331 21.6246 22.4711 22.6382 22.8657 23.2098L24.8208 21.9276C24.8208 21.9276 24.3208 21.4329 24.2329 21.2227Z" fill="#FF0000"/>
<path d="M22.597 22.5674C22.6636 22.6135 23.6532 21.3803 23.6264 21.3189C23.5997 21.2576 23.4387 21.3189 23.4293 21.2094C23.3601 21.0479 23.4616 20.5539 23.2958 20.5082C23.2287 20.4897 23.1227 20.5304 23.1227 20.5304C23.1227 20.5304 21.5789 21.5289 21.5676 21.6037C21.5563 21.6784 22.5304 22.5212 22.597 22.5674Z" fill="#FF0000"/>
<path d="M22.597 22.5674C22.6636 22.6135 23.6532 21.3803 23.6264 21.3189C23.5997 21.2576 23.4387 21.3189 23.4293 21.2094C23.3601 21.0479 23.4616 20.5539 23.2958 20.5082C23.2287 20.4897 23.1227 20.5304 23.1227 20.5304C23.1227 20.5304 21.5789 21.5289 21.5676 21.6037C21.5563 21.6784 22.5304 22.5212 22.597 22.5674Z" fill="#333333" fill-opacity="0.15"/>
<path d="M21.5551 21.5996C21.5551 21.5996 22.6848 22.9289 22.8713 23.204C22.8865 23.2124 22.8429 24.5904 22.8429 24.5904C22.8429 24.5904 22.5831 24.5671 22.4643 24.6097C22.3455 24.6522 21.7399 25.0155 21.6188 24.9924C21.4977 24.9694 20.545 23.9061 20.5231 23.8448C21.2395 23.4714 21.3358 23.2784 21.3358 23.2124C21.3358 23.1465 21.3802 22.3106 21.3358 22.2452C21.2914 22.1797 21.093 22.1529 21.0902 22.0881C21.0873 22.0232 21.5551 21.5996 21.5551 21.5996Z" fill="#333333"/>
<path d="M22.8704 23.2068L24.8216 21.9275L24.8286 23.623C24.3079 23.8465 23.5049 24.1064 22.8403 24.591L22.8704 23.2068Z" fill="#333333" fill-opacity="0.75"/>
<path d="M22.8704 23.2068L24.8216 21.9275L24.8286 23.623C24.3079 23.8465 23.5049 24.1064 22.8403 24.591L22.8704 23.2068Z" fill="#333333" fill-opacity="0.2"/>
<path d="M23.3243 20.5257C23.2876 20.4607 23.1816 20.517 23.1686 20.4785C23.2223 20.4408 23.3267 20.3707 23.4213 20.3118C23.516 20.2528 23.892 20.8797 23.8995 20.9484C23.907 21.0171 23.5904 21.4379 23.5502 21.3246C23.2902 21.2806 23.4586 20.6481 23.3243 20.5257Z" fill="#0D47A1"/>
<path d="M23.8203 22.9542C23.8477 22.8825 24.2379 22.7828 24.2379 22.7828C24.29 22.7524 24.4285 23.5298 24.4316 23.6738C24.4347 23.8177 24.0125 23.9759 23.8476 23.9759C23.8823 23.783 23.7929 23.0259 23.8203 22.9542Z" fill="#0D47A1"/>
<path d="M21.7951 22.6215C21.8239 22.6398 22.1958 22.9195 22.1958 22.944C22.1958 22.9684 22.2259 23.3857 22.1958 23.3739C22.1657 23.3621 21.7871 23.1659 21.7951 23.1285C21.8031 23.091 21.7663 22.6031 21.7951 22.6215Z" fill="#0D47A1"/>
<path d="M21.7659 23.4814C21.8175 23.4748 22.0634 23.6131 22.0614 23.6426C22.0595 23.6721 20.9895 24.2816 21.0302 24.2179C21.0302 24.2179 20.708 23.9812 20.8001 23.8957C21.2604 23.8102 21.7142 23.4879 21.7659 23.4814Z" fill="#0D47A1"/>
<path d="M23.3161 20.5099C23.2489 20.4602 23.1553 20.4551 23.1082 20.5286C22.8923 20.9897 23.2048 21.6324 23.347 21.5896C23.4091 21.6132 23.619 21.3388 23.6442 21.3078C23.6693 21.2768 23.5252 21.3292 23.4706 21.2684C23.3544 21.1389 23.4614 20.5711 23.3161 20.5099Z" fill="#333333"/>
<path d="M23.5224 23.06L23.8155 22.9617C23.8155 22.9617 23.8904 23.7282 23.8691 23.8542C23.8479 23.9802 24.1865 23.9042 24.1865 24.0128C24.0205 24.0852 23.5722 24.0834 23.5443 24.0128C23.5255 23.9653 23.5224 23.06 23.5224 23.06Z" fill="#333333"/>
<path d="M21.4396 25.0723C21.4643 25.0442 21.7181 25.0442 21.7181 25.0442C21.7181 25.0442 21.9366 25.0421 21.9828 25.0393C22.029 25.0364 22.0784 25.0967 22.0258 25.102C21.9732 25.1073 21.4841 25.1896 21.4476 25.1526C21.4112 25.1157 21.4148 25.1003 21.4396 25.0723Z" fill="#333333"/>
<path d="M21.7412 25.092C21.7637 25.096 22.144 25.0948 22.12 25.092C22.096 25.0892 22.0406 25.0637 22.0406 25.0393C22.0406 25.015 22.0573 24.9033 22.0406 24.9033H21.8704C21.8523 24.9033 21.8704 24.99 21.8704 25.0186C21.8704 25.0473 21.7188 25.0881 21.7412 25.092Z" fill="#333333"/>
<path d="M21.8628 24.9036C21.8628 24.8958 21.9258 24.9036 21.9258 24.9036V25.0939H21.7485C21.7065 25.0939 21.8628 25.049 21.8628 25.0178V24.9036Z" fill="#333333"/>
<path d="M21.8628 24.9036C21.8628 24.8958 21.9258 24.9036 21.9258 24.9036V25.0939H21.7485C21.7065 25.0939 21.8628 25.049 21.8628 25.0178V24.9036Z" fill="#272B6B" fill-opacity="0.05"/>
<path d="M22.4721 24.7765C22.4785 24.6942 22.0425 24.0537 21.9728 24.0663C21.9031 24.0789 21.4196 24.6896 21.4477 24.7765C21.4757 24.8635 21.8115 24.914 21.8523 24.914H22.0675C22.1141 24.914 22.4657 24.8588 22.4721 24.7765Z" fill="#009688"/>
<path d="M22.1069 24.1911C22.0494 24.1248 21.9991 24.0664 21.9716 24.0664C21.8784 24.1325 21.3927 24.6448 21.4555 24.7931C21.4814 24.8657 21.8521 24.915 21.8521 24.915C21.9055 24.9231 21.9487 24.9205 22.0759 24.915C22.2032 24.9094 22.3154 24.8772 22.2309 24.86C22.1206 24.8276 22.0759 24.7855 22.0759 24.7855C21.9098 24.6749 22.0607 24.2987 22.1069 24.1911Z" fill="#009688"/>
<path d="M22.1069 24.1911C22.0494 24.1248 21.9991 24.0664 21.9716 24.0664C21.8784 24.1325 21.3927 24.6448 21.4555 24.7931C21.4814 24.8657 21.8521 24.915 21.8521 24.915C21.9055 24.9231 21.9487 24.9205 22.0759 24.915C22.2032 24.9094 22.3154 24.8772 22.2309 24.86C22.1206 24.8276 22.0759 24.7855 22.0759 24.7855C21.9098 24.6749 22.0607 24.2987 22.1069 24.1911Z" fill="#333333" fill-opacity="0.15"/>
<path d="M22.0072 24.158C22.0593 24.1211 21.9968 24.0618 21.9717 24.0672C21.9254 24.0773 21.3812 24.6548 21.4496 24.789C21.4632 24.855 21.9297 24.956 21.8773 24.9047C21.8248 24.8535 21.6342 24.752 21.6973 24.5749C21.7605 24.3978 21.9576 24.1931 22.0072 24.158Z" fill="#009688"/>
<path d="M22.0072 24.158C22.0593 24.1211 21.9968 24.0618 21.9717 24.0672C21.9254 24.0773 21.3812 24.6548 21.4496 24.789C21.4632 24.855 21.9297 24.956 21.8773 24.9047C21.8248 24.8535 21.6342 24.752 21.6973 24.5749C21.7605 24.3978 21.9576 24.1931 22.0072 24.158Z" fill="#333333" fill-opacity="0.35"/>
<path d="M20.3111 23.4202C20.3359 23.3921 20.5897 23.3921 20.5897 23.3921C20.5897 23.3921 20.8082 23.39 20.8544 23.3872C20.9005 23.3843 20.95 23.4446 20.8974 23.4499C20.8448 23.4552 20.3556 23.5375 20.3192 23.5005C20.2828 23.4636 20.2864 23.4482 20.3111 23.4202Z" fill="#333333"/>
<path d="M20.6133 23.4399C20.6357 23.4439 21.0161 23.4427 20.9921 23.4399C20.9681 23.4371 20.9127 23.4116 20.9127 23.3872C20.9127 23.3629 20.9294 23.2512 20.9127 23.2512H20.7424C20.7244 23.2512 20.7424 23.3379 20.7424 23.3665C20.7424 23.3952 20.5908 23.436 20.6133 23.4399Z" fill="#333333"/>
<path d="M20.7349 23.2513C20.7349 23.2435 20.7979 23.2513 20.7979 23.2513V23.4416H20.6206C20.5786 23.4416 20.7349 23.3967 20.7349 23.3654V23.2513Z" fill="#333333"/>
<path d="M20.7349 23.2513C20.7349 23.2435 20.7979 23.2513 20.7979 23.2513V23.4416H20.6206C20.5786 23.4416 20.7349 23.3967 20.7349 23.3654V23.2513Z" fill="#272B6B" fill-opacity="0.05"/>
<path d="M21.3447 23.1242C21.3511 23.0419 20.915 22.4014 20.8453 22.414C20.7757 22.4266 20.2921 23.0372 20.3202 23.1242C20.3483 23.2111 20.6841 23.2616 20.7248 23.2616H20.94C20.9867 23.2616 21.3382 23.2065 21.3447 23.1242Z" fill="#009688"/>
<path d="M20.9799 22.5392C20.9224 22.4729 20.8722 22.4146 20.8446 22.4146C20.7515 22.4806 20.2658 22.9929 20.3286 23.1412C20.3544 23.2138 20.7251 23.2631 20.7251 23.2631C20.7786 23.2712 20.8218 23.2686 20.949 23.2631C21.0762 23.2576 21.1885 23.2253 21.1039 23.2081C20.9936 23.1758 20.949 23.1336 20.949 23.1336C20.7828 23.023 20.9338 22.6468 20.9799 22.5392Z" fill="#009688"/>
<path d="M20.9799 22.5392C20.9224 22.4729 20.8722 22.4146 20.8446 22.4146C20.7515 22.4806 20.2658 22.9929 20.3286 23.1412C20.3544 23.2138 20.7251 23.2631 20.7251 23.2631C20.7786 23.2712 20.8218 23.2686 20.949 23.2631C21.0762 23.2576 21.1885 23.2253 21.1039 23.2081C20.9936 23.1758 20.949 23.1336 20.949 23.1336C20.7828 23.023 20.9338 22.6468 20.9799 22.5392Z" fill="#333333" fill-opacity="0.15"/>
<path d="M20.8803 22.5056C20.9323 22.4687 20.8698 22.4095 20.8447 22.4149C20.7985 22.4249 20.2543 23.0025 20.3227 23.1367C20.3363 23.2027 20.8028 23.3036 20.7503 23.2524C20.6979 23.2011 20.5072 23.0997 20.5704 22.9226C20.6335 22.7454 20.8307 22.5408 20.8803 22.5056Z" fill="#009688"/>
<path d="M20.8803 22.5056C20.9323 22.4687 20.8698 22.4095 20.8447 22.4149C20.7985 22.4249 20.2543 23.0025 20.3227 23.1367C20.3363 23.2027 20.8028 23.3036 20.7503 23.2524C20.6979 23.2011 20.5072 23.0997 20.5704 22.9226C20.6335 22.7454 20.8307 22.5408 20.8803 22.5056Z" fill="#333333" fill-opacity="0.35"/>
<path d="M16.6214 5.03287C23.1333 5.03287 28.4123 10.3118 28.4123 16.8237H23.4209V9.60484L20.6451 11.7517V16.8237H19.5456V12.5985L16.7891 14.6861V16.8237H15.6718V14.6861L12.8944 12.8442V16.8237H11.8139V12.8442L9.03801 14.6861V16.8237H4.83057C4.83057 10.3118 10.1095 5.03287 16.6214 5.03287Z" fill="#F9FCFF"/>
<path d="M12.3517 11.5318L9.00784 13.9611L9.00781 12.8177L12.3517 10.342L16.2463 12.8177L23.4079 7.5122V8.65346L16.2463 13.9858L12.3517 11.5318Z" fill="#0D47A1"/>
<path d="M27.4636 16.8237C27.4636 10.6509 22.5932 5.64691 16.5853 5.64691C10.5774 5.64691 5.70703 10.6509 5.70703 16.8237" stroke="#F9FCFF" stroke-width="1.3508"/>
<path d="M58.5044 2.75892C58.6788 3.06018 58.873 3.42883 59.0871 3.86487C59.3011 4.3009 59.5192 4.76072 59.7411 5.24432C59.9631 5.72 60.1811 6.20757 60.3952 6.70703C60.6172 7.19856 60.8193 7.65441 61.0017 8.07459C61.184 7.65441 61.3822 7.19856 61.5963 6.70703C61.8103 6.20757 62.0283 5.72 62.2503 5.24432C62.4723 4.76072 62.6903 4.3009 62.9044 3.86487C63.1184 3.42883 63.3127 3.06018 63.4871 2.75892H64.8428C64.9141 3.36144 64.9815 4.0036 65.0449 4.68541C65.1083 5.35928 65.1638 6.05297 65.2114 6.76649C65.2669 7.47207 65.3145 8.18559 65.3541 8.90703C65.4017 9.62054 65.4413 10.3182 65.473 11H63.9984C63.9667 10.0407 63.9271 9.05369 63.8795 8.03892C63.8399 7.02414 63.7765 6.04108 63.6892 5.08973C63.602 5.27207 63.499 5.49009 63.3801 5.74378C63.2611 5.99748 63.1343 6.27496 62.9995 6.57622C62.8647 6.86955 62.726 7.17478 62.5833 7.49189C62.4485 7.80901 62.3138 8.1182 62.179 8.41946C62.0521 8.71279 61.9332 8.99027 61.8222 9.25189C61.7112 9.50559 61.6161 9.7236 61.5368 9.90595H60.419C60.3397 9.7236 60.2446 9.50162 60.1336 9.24C60.0226 8.97838 59.8997 8.7009 59.7649 8.40757C59.6381 8.10631 59.5033 7.79712 59.3606 7.48C59.2258 7.16288 59.091 6.85766 58.9563 6.56432C58.8215 6.27099 58.6947 5.99748 58.5757 5.74378C58.4568 5.48216 58.3538 5.26414 58.2665 5.08973C58.1793 6.04108 58.1119 7.02414 58.0644 8.03892C58.0247 9.05369 57.9891 10.0407 57.9574 11H56.4828C56.5145 10.3182 56.5501 9.61261 56.5898 8.88324C56.6374 8.15387 56.6849 7.43243 56.7325 6.71892C56.788 5.99748 56.8474 5.29982 56.9109 4.62595C56.9743 3.95207 57.0417 3.32973 57.113 2.75892H58.5044ZM67.4565 2.75892H68.9548V11H67.4565V2.75892ZM74.8293 11.1784C74.211 11.1784 73.656 11.0832 73.1645 10.893C72.673 10.7027 72.2567 10.4252 71.9158 10.0605C71.5749 9.68793 71.3133 9.23604 71.131 8.70487C70.9486 8.17369 70.8575 7.56324 70.8575 6.87351C70.8575 6.18378 70.9605 5.57333 71.1666 5.04216C71.3807 4.51099 71.6701 4.06306 72.0348 3.69838C72.3994 3.32577 72.8275 3.04432 73.3191 2.85405C73.8106 2.66378 74.3378 2.56865 74.9007 2.56865C75.2416 2.56865 75.5508 2.5964 75.8283 2.65189C76.1057 2.69946 76.3475 2.75496 76.5537 2.81838C76.7598 2.8818 76.9302 2.94919 77.065 3.02054C77.1998 3.09189 77.2949 3.14342 77.3504 3.17514L76.9104 4.4C76.7202 4.28108 76.4466 4.17009 76.0899 4.06703C75.7411 3.95604 75.3605 3.90054 74.9483 3.90054C74.5915 3.90054 74.2585 3.96396 73.9493 4.09081C73.6402 4.20973 73.3706 4.39207 73.1407 4.63784C72.9187 4.8836 72.7443 5.19279 72.6175 5.56541C72.4906 5.93802 72.4272 6.37009 72.4272 6.86162C72.4272 7.29766 72.4748 7.69802 72.5699 8.0627C72.673 8.42739 72.8275 8.7445 73.0337 9.01405C73.2398 9.27568 73.5014 9.4818 73.8185 9.63243C74.1357 9.77514 74.5162 9.84649 74.9602 9.84649C75.4913 9.84649 75.9234 9.79496 76.2564 9.69189C76.5893 9.5809 76.847 9.47784 77.0293 9.3827L77.4337 10.6076C77.3385 10.671 77.2077 10.7344 77.0412 10.7978C76.8827 10.8613 76.6924 10.9247 76.4704 10.9881C76.2484 11.0436 75.9987 11.0872 75.7212 11.1189C75.4438 11.1586 75.1465 11.1784 74.8293 11.1784ZM81.2592 2.67568C82.4484 2.67568 83.3562 2.89369 83.9825 3.32973C84.6167 3.76577 84.9338 4.43171 84.9338 5.32757C84.9338 6.44541 84.3828 7.20252 83.2809 7.59892C83.4315 7.78126 83.6019 8.00324 83.7922 8.26487C83.9825 8.52649 84.1767 8.81189 84.3749 9.12108C84.5731 9.42234 84.7634 9.7355 84.9457 10.0605C85.1281 10.3777 85.2906 10.6908 85.4333 11H83.7565C83.6059 10.7146 83.4434 10.4292 83.269 10.1438C83.0946 9.85045 82.9162 9.56901 82.7338 9.29946C82.5594 9.02198 82.385 8.76432 82.2106 8.52649C82.0362 8.28072 81.8737 8.0627 81.723 7.87243C81.612 7.88036 81.5169 7.88432 81.4376 7.88432C81.3583 7.88432 81.283 7.88432 81.2117 7.88432H80.4863V11H78.9879V2.87784C79.3526 2.79856 79.741 2.74703 80.1533 2.72324C80.5655 2.69153 80.9342 2.67568 81.2592 2.67568ZM81.3663 3.97189C81.0491 3.97189 80.7558 3.98378 80.4863 4.00757V6.67135H81.1403C81.505 6.67135 81.8261 6.65153 82.1036 6.61189C82.381 6.57225 82.6109 6.5009 82.7933 6.39784C82.9836 6.29478 83.1263 6.15604 83.2214 5.98162C83.3165 5.80721 83.3641 5.58523 83.3641 5.31568C83.3641 5.06198 83.3165 4.84793 83.2214 4.67351C83.1263 4.4991 82.9875 4.36036 82.8052 4.2573C82.6308 4.15423 82.4207 4.08288 82.1749 4.04324C81.9291 3.99568 81.6596 3.97189 81.3663 3.97189ZM87.9527 6.87351C87.9527 7.32541 88.0082 7.73766 88.1192 8.11027C88.2302 8.47496 88.3887 8.78811 88.5949 9.04973C88.8089 9.30342 89.0666 9.50162 89.3678 9.64432C89.6691 9.78703 90.01 9.85838 90.3905 9.85838C90.7631 9.85838 91.1001 9.78703 91.4013 9.64432C91.7026 9.50162 91.9563 9.30342 92.1624 9.04973C92.3765 8.78811 92.539 8.47496 92.65 8.11027C92.761 7.73766 92.8165 7.32541 92.8165 6.87351C92.8165 6.42162 92.761 6.01333 92.65 5.64865C92.539 5.27604 92.3765 4.96288 92.1624 4.70919C91.9563 4.44757 91.7026 4.24541 91.4013 4.1027C91.1001 3.96 90.7631 3.88865 90.3905 3.88865C90.01 3.88865 89.6691 3.96 89.3678 4.1027C89.0666 4.24541 88.8089 4.44757 88.5949 4.70919C88.3887 4.97081 88.2302 5.28396 88.1192 5.64865C88.0082 6.01333 87.9527 6.42162 87.9527 6.87351ZM94.3862 6.87351C94.3862 7.5791 94.2792 8.20144 94.0651 8.74054C93.859 9.27964 93.5736 9.73153 93.2089 10.0962C92.8522 10.453 92.432 10.7225 91.9484 10.9049C91.4648 11.0872 90.9495 11.1784 90.4024 11.1784C89.8554 11.1784 89.3361 11.0872 88.8446 10.9049C88.361 10.7225 87.9368 10.453 87.5722 10.0962C87.2154 9.73153 86.93 9.27964 86.7159 8.74054C86.5019 8.20144 86.3949 7.5791 86.3949 6.87351C86.3949 6.16793 86.5019 5.54955 86.7159 5.01838C86.93 4.47928 87.2194 4.02739 87.584 3.6627C87.9567 3.29802 88.3848 3.0245 88.8684 2.84216C89.352 2.65982 89.8633 2.56865 90.4024 2.56865C90.9415 2.56865 91.4529 2.65982 91.9365 2.84216C92.4201 3.0245 92.8403 3.29802 93.197 3.6627C93.5617 4.02739 93.8511 4.47928 94.0651 5.01838C94.2792 5.54955 94.3862 6.16793 94.3862 6.87351ZM102.944 11.1784C102.326 11.1784 101.771 11.0832 101.279 10.893C100.788 10.7027 100.371 10.4252 100.03 10.0605C99.6895 9.68793 99.4279 9.23604 99.2455 8.70487C99.0632 8.17369 98.972 7.56324 98.972 6.87351C98.972 6.18378 99.0751 5.57333 99.2812 5.04216C99.4953 4.51099 99.7846 4.06306 100.149 3.69838C100.514 3.32577 100.942 3.04432 101.434 2.85405C101.925 2.66378 102.452 2.56865 103.015 2.56865C103.356 2.56865 103.665 2.5964 103.943 2.65189C104.22 2.69946 104.462 2.75496 104.668 2.81838C104.874 2.8818 105.045 2.94919 105.18 3.02054C105.314 3.09189 105.409 3.14342 105.465 3.17514L105.025 4.4C104.835 4.28108 104.561 4.17009 104.204 4.06703C103.856 3.95604 103.475 3.90054 103.063 3.90054C102.706 3.90054 102.373 3.96396 102.064 4.09081C101.755 4.20973 101.485 4.39207 101.255 4.63784C101.033 4.8836 100.859 5.19279 100.732 5.56541C100.605 5.93802 100.542 6.37009 100.542 6.86162C100.542 7.29766 100.589 7.69802 100.684 8.0627C100.788 8.42739 100.942 8.7445 101.148 9.01405C101.354 9.27568 101.616 9.4818 101.933 9.63243C102.25 9.77514 102.631 9.84649 103.075 9.84649C103.606 9.84649 104.038 9.79496 104.371 9.69189C104.704 9.5809 104.962 9.47784 105.144 9.3827L105.548 10.6076C105.453 10.671 105.322 10.7344 105.156 10.7978C104.997 10.8613 104.807 10.9247 104.585 10.9881C104.363 11.0436 104.113 11.0872 103.836 11.1189C103.558 11.1586 103.261 11.1784 102.944 11.1784ZM108.118 6.87351C108.118 7.32541 108.174 7.73766 108.285 8.11027C108.396 8.47496 108.554 8.78811 108.76 9.04973C108.974 9.30342 109.232 9.50162 109.533 9.64432C109.835 9.78703 110.176 9.85838 110.556 9.85838C110.929 9.85838 111.266 9.78703 111.567 9.64432C111.868 9.50162 112.122 9.30342 112.328 9.04973C112.542 8.78811 112.705 8.47496 112.816 8.11027C112.927 7.73766 112.982 7.32541 112.982 6.87351C112.982 6.42162 112.927 6.01333 112.816 5.64865C112.705 5.27604 112.542 4.96288 112.328 4.70919C112.122 4.44757 111.868 4.24541 111.567 4.1027C111.266 3.96 110.929 3.88865 110.556 3.88865C110.176 3.88865 109.835 3.96 109.533 4.1027C109.232 4.24541 108.974 4.44757 108.76 4.70919C108.554 4.97081 108.396 5.28396 108.285 5.64865C108.174 6.01333 108.118 6.42162 108.118 6.87351ZM114.552 6.87351C114.552 7.5791 114.445 8.20144 114.231 8.74054C114.025 9.27964 113.739 9.73153 113.374 10.0962C113.018 10.453 112.598 10.7225 112.114 10.9049C111.63 11.0872 111.115 11.1784 110.568 11.1784C110.021 11.1784 109.502 11.0872 109.01 10.9049C108.527 10.7225 108.102 10.453 107.738 10.0962C107.381 9.73153 107.096 9.27964 106.882 8.74054C106.667 8.20144 106.56 7.5791 106.56 6.87351C106.56 6.16793 106.667 5.54955 106.882 5.01838C107.096 4.47928 107.385 4.02739 107.75 3.6627C108.122 3.29802 108.55 3.0245 109.034 2.84216C109.518 2.65982 110.029 2.56865 110.568 2.56865C111.107 2.56865 111.618 2.65982 112.102 2.84216C112.586 3.0245 113.006 3.29802 113.363 3.6627C113.727 4.02739 114.017 4.47928 114.231 5.01838C114.445 5.54955 114.552 6.16793 114.552 6.87351ZM118.556 11C117.961 9.71568 117.386 8.37189 116.831 6.96865C116.284 5.56541 115.773 4.16216 115.297 2.75892H116.95C117.141 3.31387 117.335 3.88072 117.533 4.45946C117.731 5.0382 117.929 5.60901 118.128 6.17189C118.326 6.72685 118.524 7.26595 118.722 7.78919C118.92 8.31243 119.115 8.79207 119.305 9.22811C119.487 8.79207 119.678 8.3164 119.876 7.80108C120.074 7.27784 120.272 6.73478 120.47 6.17189C120.676 5.60901 120.879 5.0382 121.077 4.45946C121.275 3.88072 121.465 3.31387 121.648 2.75892H123.253C122.769 4.16216 122.254 5.56541 121.707 6.96865C121.16 8.37189 120.589 9.71568 119.995 11H118.556ZM124.557 11V2.75892H129.848V4.03135H126.055V6.06487H129.432V7.31351H126.055V9.72757H130.134V11H124.557ZM134.034 2.67568C135.223 2.67568 136.131 2.89369 136.757 3.32973C137.391 3.76577 137.708 4.43171 137.708 5.32757C137.708 6.44541 137.157 7.20252 136.055 7.59892C136.206 7.78126 136.376 8.00324 136.567 8.26487C136.757 8.52649 136.951 8.81189 137.149 9.12108C137.348 9.42234 137.538 9.7355 137.72 10.0605C137.903 10.3777 138.065 10.6908 138.208 11H136.531C136.38 10.7146 136.218 10.4292 136.043 10.1438C135.869 9.85045 135.691 9.56901 135.508 9.29946C135.334 9.02198 135.159 8.76432 134.985 8.52649C134.811 8.28072 134.648 8.0627 134.497 7.87243C134.386 7.88036 134.291 7.88432 134.212 7.88432C134.133 7.88432 134.057 7.88432 133.986 7.88432H133.261V11H131.762V2.87784C132.127 2.79856 132.515 2.74703 132.928 2.72324C133.34 2.69153 133.709 2.67568 134.034 2.67568ZM134.141 3.97189C133.824 3.97189 133.53 3.98378 133.261 4.00757V6.67135H133.915C134.279 6.67135 134.601 6.65153 134.878 6.61189C135.155 6.57225 135.385 6.5009 135.568 6.39784C135.758 6.29478 135.901 6.15604 135.996 5.98162C136.091 5.80721 136.139 5.58523 136.139 5.31568C136.139 5.06198 136.091 4.84793 135.996 4.67351C135.901 4.4991 135.762 4.36036 135.58 4.2573C135.405 4.15423 135.195 4.08288 134.949 4.04324C134.704 3.99568 134.434 3.97189 134.141 3.97189ZM145.379 11C145.268 10.675 145.153 10.3539 145.034 10.0368C144.915 9.71964 144.8 9.39459 144.689 9.06162H141.217C141.106 9.39459 140.991 9.7236 140.872 10.0486C140.761 10.3658 140.65 10.6829 140.539 11H138.981C139.29 10.12 139.584 9.30739 139.861 8.56216C140.139 7.81694 140.408 7.11135 140.67 6.44541C140.939 5.77946 141.205 5.14523 141.467 4.5427C141.728 3.94018 141.998 3.34559 142.275 2.75892H143.69C143.968 3.34559 144.237 3.94018 144.499 4.5427C144.761 5.14523 145.022 5.77946 145.284 6.44541C145.553 7.11135 145.827 7.81694 146.104 8.56216C146.39 9.30739 146.687 10.12 146.996 11H145.379ZM142.953 4.35243C142.771 4.77261 142.561 5.28396 142.323 5.88649C142.093 6.48901 141.851 7.14306 141.597 7.84865H144.309C144.055 7.14306 143.809 6.48505 143.571 5.87459C143.334 5.26414 143.127 4.75676 142.953 4.35243ZM151.931 3.88865C151.083 3.88865 150.433 4.15423 149.981 4.68541C149.537 5.20865 149.315 5.93802 149.315 6.87351C149.315 7.31748 149.367 7.72577 149.47 8.09838C149.581 8.46306 149.739 8.77622 149.945 9.03784C150.159 9.29946 150.421 9.50559 150.73 9.65622C151.047 9.79892 151.416 9.87027 151.836 9.87027C152.098 9.87027 152.324 9.86234 152.514 9.84649C152.704 9.8227 152.855 9.79496 152.966 9.76324V6.80216H154.464V10.7622C154.258 10.8414 153.909 10.9286 153.418 11.0238C152.926 11.1189 152.359 11.1665 151.717 11.1665C151.123 11.1665 150.58 11.0714 150.088 10.8811C149.597 10.6908 149.176 10.4133 148.828 10.0486C148.487 9.68396 148.221 9.23604 148.031 8.70487C147.841 8.17369 147.745 7.56324 147.745 6.87351C147.745 6.18378 147.848 5.57333 148.055 5.04216C148.269 4.51099 148.558 4.06306 148.923 3.69838C149.287 3.32577 149.715 3.04432 150.207 2.85405C150.699 2.66378 151.222 2.56865 151.777 2.56865C152.157 2.56865 152.494 2.5964 152.788 2.65189C153.089 2.69946 153.346 2.75496 153.561 2.81838C153.775 2.8818 153.949 2.94919 154.084 3.02054C154.226 3.09189 154.326 3.14342 154.381 3.17514L153.929 4.4C153.691 4.2573 153.394 4.13838 153.037 4.04324C152.688 3.94018 152.32 3.88865 151.931 3.88865ZM156.434 11V2.75892H161.726V4.03135H157.932V6.06487H161.309V7.31351H157.932V9.72757H162.011V11H156.434Z" fill="#F9FCFF"/>
<path d="M57.4451 21.5801L61.3957 20.9438V25.0535H66.1418V28.3413H61.3957V33.2464C61.3957 34.0772 61.5371 34.74 61.82 35.235C62.1205 35.7299 62.7126 35.9774 63.5964 35.9774C64.0206 35.9774 64.4537 35.942 64.8956 35.8713C65.3552 35.7829 65.7706 35.668 66.1418 35.5266L66.6986 38.6023C66.2213 38.7967 65.691 38.9646 65.1077 39.1061C64.5244 39.2475 63.8085 39.3182 62.9601 39.3182C61.8818 39.3182 60.9892 39.1768 60.2821 38.8939C59.5751 38.5934 59.0094 38.1869 58.5852 37.6743C58.161 37.144 57.8605 36.5077 57.6837 35.7653C57.5246 35.0229 57.4451 34.2009 57.4451 33.2994V21.5801ZM83.5971 28.5534C83.2435 28.465 82.8282 28.3766 82.3509 28.2882C81.8736 28.1822 81.361 28.1292 80.8131 28.1292C80.5656 28.1292 80.2651 28.1557 79.9116 28.2087C79.5757 28.244 79.3194 28.2882 79.1427 28.3413V39H75.1921V25.7959C75.8991 25.5484 76.7299 25.3186 77.6844 25.1065C78.6566 24.8767 79.7348 24.7618 80.9191 24.7618C81.1312 24.7618 81.3876 24.7795 81.688 24.8149C81.9885 24.8325 82.289 24.8679 82.5895 24.9209C82.89 24.9563 83.1905 25.0093 83.491 25.08C83.7915 25.133 84.0478 25.2037 84.2599 25.2921L83.5971 28.5534ZM97.2813 36.2425C97.6702 36.2425 98.0414 36.2337 98.3949 36.216C98.7484 36.1983 99.0313 36.1718 99.2434 36.1365V33.1403C99.0843 33.105 98.8457 33.0696 98.5275 33.0343C98.2093 32.9989 97.9177 32.9813 97.6525 32.9813C97.2813 32.9813 96.9278 33.0078 96.592 33.0608C96.2738 33.0962 95.991 33.1757 95.7435 33.2994C95.496 33.4232 95.3016 33.5911 95.1602 33.8032C95.0188 34.0153 94.9481 34.2805 94.9481 34.5986C94.9481 35.2173 95.1513 35.6504 95.5579 35.8978C95.9821 36.1276 96.5566 36.2425 97.2813 36.2425ZM96.9632 24.6823C98.1298 24.6823 99.102 24.8149 99.8797 25.08C100.657 25.3452 101.276 25.7252 101.736 26.2201C102.213 26.7151 102.549 27.316 102.743 28.0231C102.938 28.7301 103.035 29.5167 103.035 30.3829V38.6023C102.469 38.726 101.683 38.8674 100.675 39.0265C99.6676 39.2033 98.448 39.2917 97.0162 39.2917C96.1147 39.2917 95.2928 39.2121 94.5504 39.053C93.8256 38.8939 93.1981 38.6376 92.6678 38.2841C92.1376 37.9129 91.731 37.4357 91.4482 36.8523C91.1654 36.269 91.024 35.5531 91.024 34.7047C91.024 33.8916 91.183 33.2022 91.5012 32.6366C91.8371 32.0709 92.279 31.6202 92.8269 31.2844C93.3749 30.9485 94.0024 30.7099 94.7094 30.5685C95.4165 30.4094 96.1501 30.3298 96.9101 30.3298C97.4227 30.3298 97.8735 30.3564 98.2624 30.4094C98.6689 30.4447 98.9959 30.4978 99.2434 30.5685V30.1973C99.2434 29.5256 99.0401 28.9864 98.6336 28.5799C98.227 28.1733 97.52 27.9701 96.5124 27.9701C95.8407 27.9701 95.1779 28.0231 94.5238 28.1292C93.8698 28.2175 93.3042 28.3501 92.8269 28.5269L92.3232 25.3452C92.553 25.2745 92.8358 25.2037 93.1716 25.133C93.5251 25.0447 93.9052 24.974 94.3117 24.9209C94.7183 24.8502 95.1425 24.7972 95.5844 24.7618C96.044 24.7088 96.5036 24.6823 96.9632 24.6823ZM111.778 32.0267C111.778 31.0192 111.937 30.0735 112.255 29.1897C112.591 28.2882 113.068 27.5105 113.687 26.8565C114.305 26.1848 115.057 25.6545 115.94 25.2656C116.824 24.8767 117.832 24.6823 118.963 24.6823C119.705 24.6823 120.386 24.753 121.005 24.8944C121.623 25.0181 122.224 25.2037 122.808 25.4512L121.986 28.6064C121.614 28.465 121.208 28.3413 120.766 28.2352C120.324 28.1292 119.829 28.0761 119.281 28.0761C118.114 28.0761 117.24 28.4385 116.656 29.1632C116.091 29.8879 115.808 30.8424 115.808 32.0267C115.808 33.2818 116.073 34.2539 116.603 34.9433C117.151 35.6327 118.097 35.9774 119.44 35.9774C119.917 35.9774 120.43 35.9332 120.978 35.8448C121.526 35.7564 122.03 35.615 122.489 35.4206L123.046 38.6553C122.587 38.8498 122.012 39.0177 121.323 39.1591C120.633 39.3005 119.873 39.3712 119.042 39.3712C117.77 39.3712 116.674 39.1856 115.755 38.8144C114.836 38.4255 114.075 37.9041 113.474 37.2501C112.891 36.596 112.458 35.8271 112.175 34.9433C111.91 34.0418 111.778 33.0696 111.778 32.0267ZM135.481 30.0912C135.87 29.667 136.268 29.2251 136.674 28.7655C137.099 28.3059 137.505 27.8552 137.894 27.4133C138.283 26.9537 138.645 26.5206 138.981 26.1141C139.335 25.7075 139.635 25.354 139.883 25.0535H144.576C143.639 26.1317 142.72 27.1658 141.818 28.1557C140.934 29.1279 139.962 30.1354 138.902 31.1783C139.432 31.6556 139.98 32.23 140.546 32.9017C141.111 33.5557 141.659 34.2363 142.189 34.9433C142.72 35.6504 143.206 36.3574 143.648 37.0645C144.09 37.7715 144.461 38.4167 144.761 39H140.227C139.945 38.5404 139.618 38.0366 139.246 37.4887C138.893 36.923 138.513 36.3663 138.106 35.8183C137.7 35.2527 137.267 34.7135 136.807 34.2009C136.365 33.6883 135.923 33.2552 135.481 32.9017V39H131.531V19.0613L135.481 18.4249V30.0912ZM161.123 28.5534C160.77 28.465 160.354 28.3766 159.877 28.2882C159.4 28.1822 158.887 28.1292 158.339 28.1292C158.092 28.1292 157.791 28.1557 157.438 28.2087C157.102 28.244 156.846 28.2882 156.669 28.3413V39H152.718V25.7959C153.425 25.5484 154.256 25.3186 155.211 25.1065C156.183 24.8767 157.261 24.7618 158.445 24.7618C158.657 24.7618 158.914 24.7795 159.214 24.8149C159.515 24.8325 159.815 24.8679 160.116 24.9209C160.416 24.9563 160.717 25.0093 161.017 25.08C161.318 25.133 161.574 25.2037 161.786 25.2921L161.123 28.5534Z" fill="#F9FCFF"/>
</svg>
