<svg width="53" height="52" viewBox="0 0 53 52" fill="none" xmlns="http://www.w3.org/2000/svg">
<rect x="0.5" width="52" height="52" rx="6" fill="url(#paint0_linear_5445_168)"/>
<path d="M26.5 24C28.7091 24 30.5 22.2091 30.5 20C30.5 17.7909 28.7091 16 26.5 16C24.2909 16 22.5 17.7909 22.5 20C22.5 22.2091 24.2909 24 26.5 24Z" fill="#F5F5F5" stroke="#F5F5F5" stroke-width="1.5"/>
<path d="M19.5 30C18.25 30.633 17.5 31.439 17.5 32.316C17.5 34.35 21.53 36 26.5 36C31.47 36 35.5 34.35 35.5 32.316C35.5 31.439 34.75 30.633 33.5 30M26.5 24V32" stroke="#F5F5F5" stroke-width="1.5" stroke-linecap="round"/>
<defs>
<linearGradient id="paint0_linear_5445_168" x1="0.5" y1="26" x2="52.5" y2="26" gradientUnits="userSpaceOnUse">
<stop stop-color="#35D29B"/>
<stop offset="1" stop-color="#5FA6F8"/>
</linearGradient>
</defs>
</svg>
