<svg width="53" height="52" viewBox="0 0 53 52" fill="none" xmlns="http://www.w3.org/2000/svg">
<rect x="0.5" width="52" height="52" rx="6" fill="url(#paint0_linear_5445_184)"/>
<path d="M26.5 19.61L23.74 22.35L27.05 25.66L25.99 26.72L22.68 23.41L20.91 25.18L24.22 28.49L23.16 29.55L19.85 26.24L17.85 28.24C17.5322 28.5478 17.3254 28.9524 17.2621 29.3903C17.1988 29.8282 17.2824 30.2747 17.5 30.66L18.5 32.55L16.25 34.84L17.66 36.25L19.95 34L21.84 35C22.1448 35.1728 22.4896 35.2624 22.84 35.26C23.1039 35.2602 23.3653 35.2082 23.609 35.1069C23.8527 35.0057 24.0739 34.8572 24.26 34.67L32.89 26L26.5 19.61ZM34.3 23.2L32.51 21.4L33.93 19.99L35.34 21.4L36.75 19.99L32.51 15.75L31.1 17.16L32.51 18.58L31.1 19.99L29.3 18.2L27.56 16.45L26.15 17.87L27.18 18.9V18.91L33.59 25.32H33.6L34.63 26.35L36.05 24.94L34.31 23.2H34.3Z" fill="#F5F5F5"/>
<defs>
<linearGradient id="paint0_linear_5445_184" x1="0.5" y1="26" x2="52.5" y2="26" gradientUnits="userSpaceOnUse">
<stop stop-color="#35D29B"/>
<stop offset="1" stop-color="#5FA6F8"/>
</linearGradient>
</defs>
</svg>
